G04*
G04 #@! TF.GenerationSoftware,Altium Limited,Altium Designer,18.1.9 (240)*
G04*
G04 Layer_Color=32768*
%FSLAX44Y44*%
%MOMM*%
G71*
G01*
G75*
%ADD11C,0.1524*%
%ADD60C,0.1000*%
G36*
X689518Y490728D02*
X699516D01*
Y480730D01*
X715487D01*
Y395570D01*
X699516D01*
Y385572D01*
X689518D01*
Y369601D01*
X604358D01*
Y385572D01*
X594360D01*
Y395570D01*
X578389D01*
Y480730D01*
X594360D01*
Y490728D01*
X604358D01*
Y506699D01*
X689518D01*
Y490728D01*
D02*
G37*
D11*
X699516D01*
X689518D02*
Y506699D01*
X604358D02*
X689518D01*
X604358Y490728D02*
Y506699D01*
X594360Y490728D02*
X604358D01*
X594360Y480730D02*
Y490728D01*
X578389Y480730D02*
X594360D01*
X578389Y395570D02*
Y480730D01*
Y395570D02*
X594360D01*
Y385572D02*
Y395570D01*
Y385572D02*
X604358D01*
Y369601D02*
Y385572D01*
Y369601D02*
X689518D01*
Y385572D01*
X699516D01*
Y395570D01*
X715487D01*
Y480730D01*
X699516D02*
X715487D01*
X699516D02*
Y490728D01*
D60*
X530352Y99394D02*
Y109394D01*
X525352Y104394D02*
X535352D01*
X538352Y90394D02*
Y118394D01*
X522352D02*
X538352D01*
X522352Y90394D02*
X538352D01*
X522352D02*
Y118394D01*
X1146048Y557610D02*
Y567610D01*
X1141048Y562610D02*
X1151048D01*
X1138048Y548610D02*
Y576610D01*
Y548610D02*
X1154048D01*
X1138048Y576610D02*
X1154048D01*
Y548610D02*
Y576610D01*
X695736Y518034D02*
Y534034D01*
X667736Y518034D02*
Y534034D01*
Y518034D02*
X695736D01*
X667736Y534034D02*
X695736D01*
X676736Y526034D02*
X686736D01*
X681736Y521034D02*
Y531034D01*
X737078Y416434D02*
Y432434D01*
X765078Y416434D02*
Y432434D01*
X737078D02*
X765078D01*
X737078Y416434D02*
X765078D01*
X746078Y424434D02*
X756078D01*
X751078Y419434D02*
Y429434D01*
X737405Y396876D02*
Y412876D01*
X765405Y396876D02*
Y412876D01*
X737405D02*
X765405D01*
X737405Y396876D02*
X765405D01*
X746405Y404876D02*
X756405D01*
X751405Y399876D02*
Y409876D01*
X743840Y458320D02*
X759840D01*
X743840Y486320D02*
X759840D01*
X743840Y458320D02*
Y486320D01*
X759840Y458320D02*
Y486320D01*
X751840Y467320D02*
Y477320D01*
X746840Y472320D02*
X756840D01*
X725044Y457678D02*
X741044D01*
X725044Y485678D02*
X741044D01*
X725044Y457678D02*
Y485678D01*
X741044Y457678D02*
Y485678D01*
X733044Y466678D02*
Y476678D01*
X728044Y471678D02*
X738044D01*
X698036Y345664D02*
X714036D01*
X698036Y373664D02*
X714036D01*
X698036Y345664D02*
Y373664D01*
X714036Y345664D02*
Y373664D01*
X706036Y354664D02*
Y364664D01*
X701036Y359664D02*
X711036D01*
X624870Y520320D02*
Y536320D01*
X596870Y520320D02*
Y536320D01*
Y520320D02*
X624870D01*
X596870Y536320D02*
X624870D01*
X605870Y528320D02*
X615870D01*
X610870Y523320D02*
Y533320D01*
X494158Y89886D02*
X510158D01*
X494158Y117886D02*
X510158D01*
X494158Y89886D02*
Y117886D01*
X510158Y89886D02*
Y117886D01*
X502158Y98886D02*
Y108886D01*
X497158Y103886D02*
X507158D01*
X1257428Y245588D02*
X1273428D01*
X1257428Y273588D02*
X1273428D01*
X1257428Y245588D02*
Y273588D01*
X1273428Y245588D02*
Y273588D01*
X1265428Y254588D02*
Y264588D01*
X1260428Y259588D02*
X1270428D01*
X974726Y145004D02*
X990726D01*
X974726Y173004D02*
X990726D01*
X974726Y145004D02*
Y173004D01*
X990726Y145004D02*
Y173004D01*
X982726Y154004D02*
Y164004D01*
X977726Y159004D02*
X987726D01*
X873888Y250668D02*
X889888D01*
X873888Y278668D02*
X889888D01*
X873888Y250668D02*
Y278668D01*
X889888Y250668D02*
Y278668D01*
X881888Y259668D02*
Y269668D01*
X876888Y264668D02*
X886888D01*
X739872Y344552D02*
Y360552D01*
X767872Y344552D02*
Y360552D01*
X739872D02*
X767872D01*
X739872Y344552D02*
X767872D01*
X748872Y352552D02*
X758872D01*
X753872Y347552D02*
Y357552D01*
X990316Y95124D02*
Y111124D01*
X1018316Y95124D02*
Y111124D01*
X990316D02*
X1018316D01*
X990316Y95124D02*
X1018316D01*
X999316Y103124D02*
X1009316D01*
X1004316Y98124D02*
Y108124D01*
X853918Y402210D02*
Y418210D01*
X881918Y402210D02*
Y418210D01*
X853918D02*
X881918D01*
X853918Y402210D02*
X881918D01*
X862918Y410210D02*
X872918D01*
X867918Y405210D02*
Y415210D01*
X1002822Y75312D02*
Y91312D01*
X974822Y75312D02*
Y91312D01*
Y75312D02*
X1002822D01*
X974822Y91312D02*
X1002822D01*
X983822Y83312D02*
X993822D01*
X988822Y78312D02*
Y88312D01*
X1002060Y45594D02*
Y61594D01*
X974060Y45594D02*
Y61594D01*
Y45594D02*
X1002060D01*
X974060Y61594D02*
X1002060D01*
X983060Y53594D02*
X993060D01*
X988060Y48594D02*
Y58594D01*
X390622Y150242D02*
Y166242D01*
X418622Y150242D02*
Y166242D01*
X390622D02*
X418622D01*
X390622Y150242D02*
X418622D01*
X399622Y158242D02*
X409622D01*
X404622Y153242D02*
Y163242D01*
X390622Y175896D02*
Y191896D01*
X418622Y175896D02*
Y191896D01*
X390622D02*
X418622D01*
X390622Y175896D02*
X418622D01*
X399622Y183896D02*
X409622D01*
X404622Y178896D02*
Y188896D01*
X389860Y254890D02*
Y270890D01*
X417860Y254890D02*
Y270890D01*
X389860D02*
X417860D01*
X389860Y254890D02*
X417860D01*
X398860Y262890D02*
X408860D01*
X403860Y257890D02*
Y267890D01*
X389352Y281560D02*
Y297560D01*
X417352Y281560D02*
Y297560D01*
X389352D02*
X417352D01*
X389352Y281560D02*
X417352D01*
X398352Y289560D02*
X408352D01*
X403352Y284560D02*
Y294560D01*
X417098Y306198D02*
Y322198D01*
X389098Y306198D02*
Y322198D01*
Y306198D02*
X417098D01*
X389098Y322198D02*
X417098D01*
X398098Y314198D02*
X408098D01*
X403098Y309198D02*
Y319198D01*
X416844Y331852D02*
Y347852D01*
X388844Y331852D02*
Y347852D01*
Y331852D02*
X416844D01*
X388844Y347852D02*
X416844D01*
X397844Y339852D02*
X407844D01*
X402844Y334852D02*
Y344852D01*
X417860Y201804D02*
Y217804D01*
X389860Y201804D02*
Y217804D01*
Y201804D02*
X417860D01*
X389860Y217804D02*
X417860D01*
X398860Y209804D02*
X408860D01*
X403860Y204804D02*
Y214804D01*
X418114Y228220D02*
Y244220D01*
X390114Y228220D02*
Y244220D01*
Y228220D02*
X418114D01*
X390114Y244220D02*
X418114D01*
X399114Y236220D02*
X409114D01*
X404114Y231220D02*
Y241220D01*
X239602Y555498D02*
X249602D01*
X244602Y550498D02*
Y560498D01*
X236602Y541498D02*
Y569498D01*
X252602Y541498D02*
Y569498D01*
X236602Y541498D02*
X252602D01*
X236602Y569498D02*
X252602D01*
X239348Y506476D02*
X249348D01*
X244348Y501476D02*
Y511476D01*
X252348Y492476D02*
Y520476D01*
X236348Y492476D02*
Y520476D01*
X252348D01*
X236348Y492476D02*
X252348D01*
X544148Y386080D02*
X554148D01*
X549148Y381080D02*
Y391080D01*
X541148Y372080D02*
Y400080D01*
X557148Y372080D02*
Y400080D01*
X541148Y372080D02*
X557148D01*
X541148Y400080D02*
X557148D01*
X924052Y29290D02*
Y39290D01*
X919052Y34290D02*
X929052D01*
X910052Y26290D02*
X938052D01*
X910052Y42290D02*
X938052D01*
Y26290D02*
Y42290D01*
X910052Y26290D02*
Y42290D01*
M02*
