G04*
G04 #@! TF.GenerationSoftware,Altium Limited,Altium Designer,18.1.9 (240)*
G04*
G04 Layer_Color=8388736*
%FSLAX44Y44*%
%MOMM*%
G71*
G01*
G75*
%ADD20R,0.3048X1.1938*%
%ADD21R,1.1938X0.3048*%
%ADD24R,1.0532X0.6532*%
%ADD25R,1.6032X1.3032*%
%ADD26R,1.3032X1.6032*%
%ADD27R,1.0032X0.9032*%
%ADD28R,2.3032X2.6032*%
%ADD29C,1.7032*%
%ADD30R,1.7032X1.7032*%
%ADD31C,4.2032*%
%ADD32C,1.8032*%
%ADD33C,1.9812*%
%ADD34C,2.1844*%
%ADD35C,2.6924*%
%ADD36C,1.7780*%
%ADD37C,2.3032*%
%ADD38C,1.7272*%
%ADD39C,1.7532*%
%ADD40R,1.7532X1.7532*%
%ADD41C,14.9352*%
%ADD42C,3.7084*%
%ADD43C,1.4732*%
%ADD44C,0.8382*%
D20*
X684438Y380650D02*
D03*
X679438D02*
D03*
X674438D02*
D03*
X669438D02*
D03*
X664438D02*
D03*
X659438D02*
D03*
X654438D02*
D03*
X649438D02*
D03*
X644438D02*
D03*
X639438D02*
D03*
X634438D02*
D03*
X629438D02*
D03*
X624438D02*
D03*
X619438D02*
D03*
X614438D02*
D03*
X609438D02*
D03*
Y495650D02*
D03*
X614438D02*
D03*
X619438D02*
D03*
X624438D02*
D03*
X629438D02*
D03*
X634438D02*
D03*
X639438D02*
D03*
X644438D02*
D03*
X649438D02*
D03*
X654438D02*
D03*
X659438D02*
D03*
X664438D02*
D03*
X669438D02*
D03*
X674438D02*
D03*
X679438D02*
D03*
X684438D02*
D03*
D21*
X589438Y400650D02*
D03*
Y405650D02*
D03*
Y410650D02*
D03*
Y415650D02*
D03*
Y420650D02*
D03*
Y425650D02*
D03*
Y430650D02*
D03*
Y435650D02*
D03*
Y440650D02*
D03*
Y445650D02*
D03*
Y450650D02*
D03*
Y455650D02*
D03*
Y460650D02*
D03*
Y465650D02*
D03*
Y470650D02*
D03*
Y475650D02*
D03*
X704438D02*
D03*
Y470650D02*
D03*
Y465650D02*
D03*
Y460650D02*
D03*
Y455650D02*
D03*
Y450650D02*
D03*
Y445650D02*
D03*
Y440650D02*
D03*
Y435650D02*
D03*
Y430650D02*
D03*
Y425650D02*
D03*
Y420650D02*
D03*
Y415650D02*
D03*
Y410650D02*
D03*
Y405650D02*
D03*
Y400650D02*
D03*
D24*
X938022Y60612D02*
D03*
X954022D02*
D03*
Y70612D02*
D03*
Y80612D02*
D03*
X938022D02*
D03*
Y70612D02*
D03*
D25*
X530352Y111894D02*
D03*
Y96894D02*
D03*
X1146048Y555110D02*
D03*
Y570110D02*
D03*
X751840Y464820D02*
D03*
Y479820D02*
D03*
X733044Y464178D02*
D03*
Y479178D02*
D03*
X706036Y352164D02*
D03*
Y367164D02*
D03*
X502158Y96386D02*
D03*
Y111386D02*
D03*
X1265428Y252088D02*
D03*
Y267088D02*
D03*
X982726Y151504D02*
D03*
Y166504D02*
D03*
X881888Y257168D02*
D03*
Y272168D02*
D03*
X244602Y547998D02*
D03*
Y562998D02*
D03*
X244348Y513976D02*
D03*
Y498976D02*
D03*
X549148Y378580D02*
D03*
Y393580D02*
D03*
D26*
X689236Y526034D02*
D03*
X674236D02*
D03*
X743578Y424434D02*
D03*
X758578D02*
D03*
X743905Y404876D02*
D03*
X758905D02*
D03*
X618370Y528320D02*
D03*
X603370D02*
D03*
X746372Y352552D02*
D03*
X761372D02*
D03*
X996816Y103124D02*
D03*
X1011816D02*
D03*
X860418Y410210D02*
D03*
X875418D02*
D03*
X996322Y83312D02*
D03*
X981322D02*
D03*
X995560Y53594D02*
D03*
X980560D02*
D03*
X397122Y158242D02*
D03*
X412122D02*
D03*
X397122Y183896D02*
D03*
X412122D02*
D03*
X396360Y262890D02*
D03*
X411360D02*
D03*
X395852Y289560D02*
D03*
X410852D02*
D03*
X410598Y314198D02*
D03*
X395598D02*
D03*
X410344Y339852D02*
D03*
X395344D02*
D03*
X411360Y209804D02*
D03*
X396360D02*
D03*
X411614Y236220D02*
D03*
X396614D02*
D03*
X931552Y34290D02*
D03*
X916552D02*
D03*
D27*
X759260Y387604D02*
D03*
X746760D02*
D03*
Y371104D02*
D03*
X759260D02*
D03*
D28*
X1038710Y34290D02*
D03*
Y133290D02*
D03*
X1083710D02*
D03*
Y34290D02*
D03*
D29*
X822706Y65278D02*
D03*
X797306D02*
D03*
X712724Y65786D02*
D03*
X687324D02*
D03*
X661924D02*
D03*
X636524D02*
D03*
D30*
X771906Y65278D02*
D03*
X611124Y65786D02*
D03*
D31*
X1074632Y208648D02*
D03*
Y508648D02*
D03*
X924632Y358648D02*
D03*
X1224632D02*
D03*
D32*
X1029632D02*
D03*
X1119632D02*
D03*
D33*
X1074632Y342948D02*
D03*
X982032Y358648D02*
D03*
X1167232D02*
D03*
X1074632Y451248D02*
D03*
X1163332Y498348D02*
D03*
X1236232Y306648D02*
D03*
X1165332Y221948D02*
D03*
X985932Y218948D02*
D03*
X913032Y410648D02*
D03*
D34*
X177444Y472684D02*
D03*
X145644D02*
D03*
X145644Y630184D02*
D03*
X177444Y630184D02*
D03*
D35*
X161544Y504434D02*
D03*
Y598434D02*
D03*
Y551434D02*
D03*
D36*
X271780Y379476D02*
D03*
X246380D02*
D03*
X220980D02*
D03*
X195580D02*
D03*
X170180D02*
D03*
Y125476D02*
D03*
X195580D02*
D03*
X220980D02*
D03*
X246380D02*
D03*
X271780D02*
D03*
D37*
X727964Y704342D02*
D03*
X570484Y635000D02*
D03*
X727964D02*
D03*
X570484Y704342D02*
D03*
D38*
X706374Y673862D02*
D03*
X592074D02*
D03*
D39*
X642874Y610362D02*
D03*
X617474D02*
D03*
X668274D02*
D03*
X680974Y584962D02*
D03*
X655574D02*
D03*
X604774D02*
D03*
X630174D02*
D03*
D40*
X693674Y610362D02*
D03*
D41*
X843788Y551180D02*
D03*
X449834D02*
D03*
X646176Y224536D02*
D03*
D42*
X1076198Y607822D02*
D03*
X1215898Y211582D02*
D03*
X318516Y635254D02*
D03*
X919869Y212344D02*
D03*
X321310Y77724D02*
D03*
D43*
X255016Y71120D02*
D03*
X194564D02*
D03*
X787654Y399888D02*
D03*
X787400Y372784D02*
D03*
X819404Y387858D02*
D03*
X708406Y383032D02*
D03*
X665988Y351536D02*
D03*
X650494Y343662D02*
D03*
X634238Y339598D02*
D03*
X739140Y301279D02*
D03*
X739902Y322834D02*
D03*
X761380Y334772D02*
D03*
X762762Y311658D02*
D03*
X750615Y286766D02*
D03*
X748493Y267462D02*
D03*
X749300Y248666D02*
D03*
X573024Y342504D02*
D03*
X516636Y379730D02*
D03*
X692912Y551942D02*
D03*
X602234Y550672D02*
D03*
X433578Y292862D02*
D03*
X433324Y326644D02*
D03*
X432308Y359918D02*
D03*
X434340Y265176D02*
D03*
X433832Y237490D02*
D03*
X434086Y209042D02*
D03*
X433324Y183642D02*
D03*
Y157480D02*
D03*
X530352Y132588D02*
D03*
X502158D02*
D03*
X271780Y495554D02*
D03*
X271272Y545338D02*
D03*
X731266Y540512D02*
D03*
X860298Y432054D02*
D03*
X1120140Y570230D02*
D03*
X1285240Y250952D02*
D03*
X1015746Y79502D02*
D03*
X957072Y153162D02*
D03*
X881380Y235966D02*
D03*
X815340Y329184D02*
D03*
X818896Y362712D02*
D03*
X834898Y314452D02*
D03*
X877062Y89274D02*
D03*
X881126Y120650D02*
D03*
X685038Y352044D02*
D03*
X956056Y41148D02*
D03*
X613664Y342900D02*
D03*
X592328Y341122D02*
D03*
X579374Y382778D02*
D03*
X864870Y297180D02*
D03*
X773430Y455422D02*
D03*
X638810Y525526D02*
D03*
X782828Y435610D02*
D03*
X777240Y417830D02*
D03*
X720344Y495300D02*
D03*
X704342Y511556D02*
D03*
X556514Y422656D02*
D03*
X271914Y513976D02*
D03*
X271406Y562998D02*
D03*
D44*
X738378Y386588D02*
D03*
M02*
