G04*
G04 #@! TF.GenerationSoftware,Altium Limited,Altium Designer,18.1.9 (240)*
G04*
G04 Layer_Color=16711935*
%FSLAX44Y44*%
%MOMM*%
G71*
G01*
G75*
%ADD10C,0.2540*%
%ADD16C,0.0762*%
D10*
X1045473Y358648D02*
G03*
X1045473Y358648I-15841J0D01*
G01*
X1134540D02*
G03*
X1134540Y358648I-14908J0D01*
G01*
X1101585Y208788D02*
G03*
X1101585Y208788I-27093J0D01*
G01*
X1251445Y358648D02*
G03*
X1251445Y358648I-27093J0D01*
G01*
X1101585Y508508D02*
G03*
X1101585Y508508I-27093J0D01*
G01*
X951725Y358648D02*
G03*
X951725Y358648I-27093J0D01*
G01*
X734201Y224536D02*
G03*
X734201Y224536I-88025J0D01*
G01*
X931813Y551180D02*
G03*
X931813Y551180I-88025J0D01*
G01*
X537859D02*
G03*
X537859Y551180I-88025J0D01*
G01*
X1099547Y607822D02*
G03*
X1099547Y607822I-23349J0D01*
G01*
X1239247Y211582D02*
G03*
X1239247Y211582I-23349J0D01*
G01*
X341865Y635254D02*
G03*
X341865Y635254I-23349J0D01*
G01*
X943218Y212344D02*
G03*
X943218Y212344I-23349J0D01*
G01*
X344659Y77724D02*
G03*
X344659Y77724I-23349J0D01*
G01*
D16*
X119881Y-40D02*
G03*
X151Y115394I-65272J52110D01*
G01*
X-0Y628650D02*
G03*
X115556Y748018I51544J65719D01*
G01*
X1231379Y748045D02*
G03*
X1351254Y632743I65291J-52085D01*
G01*
X1351272Y120806D02*
G03*
X1236980Y-0I-51446J-65796D01*
G01*
X1351280Y632743D02*
X1351280Y120816D01*
X115570Y748030D02*
X1231398D01*
X119881Y-0D02*
X1236980Y-0D01*
X-0Y115394D02*
X0Y628650D01*
M02*
