G04*
G04 #@! TF.GenerationSoftware,Altium Limited,Altium Designer,18.1.9 (240)*
G04*
G04 Layer_Color=65535*
%FSLAX44Y44*%
%MOMM*%
G71*
G01*
G75*
%ADD10C,0.2540*%
%ADD11C,0.1524*%
%ADD12C,0.2000*%
%ADD13C,0.0500*%
%ADD14C,0.1270*%
%ADD15C,0.0635*%
%ADD16C,0.0762*%
G36*
X340360Y255651D02*
Y244221D01*
X331470Y244221D01*
Y255651D01*
X340360Y255651D01*
D02*
G37*
G36*
X612533Y372141D02*
X616343D01*
Y369601D01*
X612533D01*
Y372141D01*
D02*
G37*
G36*
X580929Y438745D02*
X578389D01*
Y442555D01*
X580929D01*
Y438745D01*
D02*
G37*
G36*
X662533Y372141D02*
X666343D01*
Y369601D01*
X662533D01*
Y372141D01*
D02*
G37*
G36*
X712947Y443745D02*
X715487D01*
Y447555D01*
X712947D01*
Y443745D01*
D02*
G37*
G36*
X617533Y504159D02*
X621343D01*
Y506699D01*
X617533D01*
Y504159D01*
D02*
G37*
G36*
X667533D02*
X671343D01*
Y506699D01*
X667533D01*
Y504159D01*
D02*
G37*
D10*
X1234632Y358648D02*
G03*
X1234632Y358648I-160000J0D01*
G01*
X770780Y364654D02*
G03*
X770790Y364654I10J362D01*
G01*
X100330Y139446D02*
X340400D01*
X100330Y139696D02*
Y361696D01*
X100290D02*
X339090D01*
X340360Y139696D02*
Y361696D01*
X558924Y746692D02*
X739174D01*
Y568112D02*
Y746692D01*
X559174Y567862D02*
X739174D01*
X558924Y568362D02*
Y746692D01*
X810768Y705854D02*
Y690618D01*
X818385D01*
X820925Y693158D01*
Y695697D01*
X818385Y698236D01*
X810768D01*
X818385D01*
X820925Y700775D01*
Y703314D01*
X818385Y705854D01*
X810768D01*
X836160Y703314D02*
X833621Y705854D01*
X828542D01*
X826003Y703314D01*
Y700775D01*
X828542Y698236D01*
X833621D01*
X836160Y695697D01*
Y693158D01*
X833621Y690618D01*
X828542D01*
X826003Y693158D01*
X851395Y703314D02*
X848856Y705854D01*
X843777D01*
X841238Y703314D01*
Y700775D01*
X843777Y698236D01*
X848856D01*
X851395Y695697D01*
Y693158D01*
X848856Y690618D01*
X843777D01*
X841238Y693158D01*
X856473Y690618D02*
Y705854D01*
X864091D01*
X866630Y703314D01*
Y698236D01*
X864091Y695697D01*
X856473D01*
X861552D02*
X866630Y690618D01*
X897100Y703314D02*
X894561Y705854D01*
X889482D01*
X886943Y703314D01*
Y700775D01*
X889482Y698236D01*
X894561D01*
X897100Y695697D01*
Y693158D01*
X894561Y690618D01*
X889482D01*
X886943Y693158D01*
X904718Y703314D02*
Y700775D01*
X902178D01*
X907257D01*
X904718D01*
Y693158D01*
X907257Y690618D01*
X922492D02*
X917413D01*
X914874Y693158D01*
Y698236D01*
X917413Y700775D01*
X922492D01*
X925031Y698236D01*
Y695697D01*
X914874D01*
X937727Y690618D02*
X932649D01*
X930109Y693158D01*
Y698236D01*
X932649Y700775D01*
X937727D01*
X940266Y698236D01*
Y695697D01*
X930109D01*
X945344Y700775D02*
Y690618D01*
Y695697D01*
X947884Y698236D01*
X950423Y700775D01*
X952962D01*
X960580Y690618D02*
X965658D01*
X963119D01*
Y700775D01*
X960580D01*
X973275Y690618D02*
Y700775D01*
X980893D01*
X983432Y698236D01*
Y690618D01*
X993589Y685540D02*
X996128D01*
X998667Y688079D01*
Y700775D01*
X991050D01*
X988511Y698236D01*
Y693158D01*
X991050Y690618D01*
X998667D01*
X1018981Y705854D02*
Y690618D01*
X1024059Y695697D01*
X1029137Y690618D01*
Y705854D01*
X1034216D02*
Y690618D01*
Y698236D01*
X1036755Y700775D01*
X1041833D01*
X1044372Y698236D01*
Y690618D01*
X1057068D02*
X1051990D01*
X1049451Y693158D01*
Y698236D01*
X1051990Y700775D01*
X1057068D01*
X1059607Y698236D01*
Y695697D01*
X1049451D01*
X1072303Y690618D02*
X1067225D01*
X1064686Y693158D01*
Y698236D01*
X1067225Y700775D01*
X1072303D01*
X1074843Y698236D01*
Y695697D01*
X1064686D01*
X1079921Y690618D02*
X1084999D01*
X1082460D01*
Y705854D01*
X1079921D01*
X1107852D02*
Y690618D01*
X1115469D01*
X1118009Y693158D01*
Y695697D01*
X1115469Y698236D01*
X1107852D01*
X1115469D01*
X1118009Y700775D01*
Y703314D01*
X1115469Y705854D01*
X1107852D01*
X1125626Y690618D02*
X1130704D01*
X1133244Y693158D01*
Y698236D01*
X1130704Y700775D01*
X1125626D01*
X1123087Y698236D01*
Y693158D01*
X1125626Y690618D01*
X1140861Y700775D02*
X1145940D01*
X1148479Y698236D01*
Y690618D01*
X1140861D01*
X1138322Y693158D01*
X1140861Y695697D01*
X1148479D01*
X1153557Y700775D02*
Y690618D01*
Y695697D01*
X1156096Y698236D01*
X1158635Y700775D01*
X1161175D01*
X1178949Y705854D02*
Y690618D01*
X1171331D01*
X1168792Y693158D01*
Y698236D01*
X1171331Y700775D01*
X1178949D01*
X810768Y661162D02*
X815846D01*
X813307D01*
Y676397D01*
X810768Y673858D01*
X823464D02*
X826003Y676397D01*
X831081D01*
X833621Y673858D01*
Y663701D01*
X831081Y661162D01*
X826003D01*
X823464Y663701D01*
Y673858D01*
X838699Y661162D02*
Y663701D01*
X841238D01*
Y661162D01*
X838699D01*
X851395Y673858D02*
X853934Y676397D01*
X859012D01*
X861552Y673858D01*
Y663701D01*
X859012Y661162D01*
X853934D01*
X851395Y663701D01*
Y673858D01*
X866630Y661162D02*
Y663701D01*
X869169D01*
Y661162D01*
X866630D01*
X879326Y673858D02*
X881865Y676397D01*
X886943D01*
X889482Y673858D01*
Y663701D01*
X886943Y661162D01*
X881865D01*
X879326Y663701D01*
Y673858D01*
X909796Y668780D02*
X919953D01*
X950423Y661162D02*
X940266D01*
X950423Y671319D01*
Y673858D01*
X947884Y676397D01*
X942805D01*
X940266Y673858D01*
X955501Y663701D02*
X958040Y661162D01*
X963119D01*
X965658Y663701D01*
Y673858D01*
X963119Y676397D01*
X958040D01*
X955501Y673858D01*
Y671319D01*
X958040Y668780D01*
X965658D01*
X970736Y661162D02*
X980893Y671319D01*
X985971Y661162D02*
X991050D01*
X988511D01*
Y676397D01*
X985971Y673858D01*
X998667Y661162D02*
X1003745D01*
X1001206D01*
Y676397D01*
X998667Y673858D01*
X1011363Y661162D02*
X1021520Y671319D01*
X1036755Y661162D02*
X1026598D01*
X1036755Y671319D01*
Y673858D01*
X1034216Y676397D01*
X1029137D01*
X1026598Y673858D01*
X1041833D02*
X1044372Y676397D01*
X1049451D01*
X1051990Y673858D01*
Y663701D01*
X1049451Y661162D01*
X1044372D01*
X1041833Y663701D01*
Y673858D01*
X1057068Y661162D02*
X1062147D01*
X1059607D01*
Y676397D01*
X1057068Y673858D01*
X1069764D02*
X1072303Y676397D01*
X1077382D01*
X1079921Y673858D01*
Y671319D01*
X1077382Y668780D01*
X1079921Y666240D01*
Y663701D01*
X1077382Y661162D01*
X1072303D01*
X1069764Y663701D01*
Y666240D01*
X1072303Y668780D01*
X1069764Y671319D01*
Y673858D01*
X1072303Y668780D02*
X1077382D01*
X240284Y53210D02*
X242188Y55114D01*
X245997D01*
X247901Y53210D01*
Y51305D01*
X245997Y49401D01*
X244093D01*
X245997D01*
X247901Y47497D01*
Y45592D01*
X245997Y43688D01*
X242188D01*
X240284Y45592D01*
X251710Y55114D02*
Y47497D01*
X255519Y43688D01*
X259328Y47497D01*
Y55114D01*
X263137Y53210D02*
X265041Y55114D01*
X268850D01*
X270754Y53210D01*
Y51305D01*
X268850Y49401D01*
X266945D01*
X268850D01*
X270754Y47497D01*
Y45592D01*
X268850Y43688D01*
X265041D01*
X263137Y45592D01*
X187957Y53210D02*
X186053Y55114D01*
X182244D01*
X180340Y53210D01*
Y45592D01*
X182244Y43688D01*
X186053D01*
X187957Y45592D01*
Y49401D01*
X184149D01*
X191766Y43688D02*
Y55114D01*
X199384Y43688D01*
Y55114D01*
X203193D02*
Y43688D01*
X208906D01*
X210810Y45592D01*
Y53210D01*
X208906Y55114D01*
X203193D01*
X999741Y564638D02*
X997202Y567177D01*
X992123D01*
X989584Y564638D01*
Y562099D01*
X992123Y559560D01*
X997202D01*
X999741Y557020D01*
Y554481D01*
X997202Y551942D01*
X992123D01*
X989584Y554481D01*
X1004819Y567177D02*
Y551942D01*
X1009897Y557020D01*
X1014976Y551942D01*
Y567177D01*
X1020054Y549403D02*
X1030211D01*
X1035289Y551942D02*
Y567177D01*
X1045446Y551942D01*
Y567177D01*
X1050524Y551942D02*
Y562099D01*
X1055603Y567177D01*
X1060681Y562099D01*
Y551942D01*
Y559560D01*
X1050524D01*
X1065759Y567177D02*
Y557020D01*
X1070838Y551942D01*
X1075916Y557020D01*
Y567177D01*
X105922Y511553D02*
X103383Y509013D01*
Y503935D01*
X105922Y501396D01*
X108461D01*
X111000Y503935D01*
Y509013D01*
X113540Y511553D01*
X116079D01*
X118618Y509013D01*
Y503935D01*
X116079Y501396D01*
X103383Y516631D02*
X118618D01*
X113540Y521709D01*
X118618Y526788D01*
X103383D01*
X121157Y531866D02*
Y542023D01*
X103383Y547101D02*
Y557258D01*
Y552180D01*
X118618D01*
Y564875D02*
Y569954D01*
X116079Y572493D01*
X111000D01*
X108461Y569954D01*
Y564875D01*
X111000Y562336D01*
X116079D01*
X118618Y564875D01*
X123696Y582650D02*
Y585189D01*
X121157Y587728D01*
X108461D01*
Y580111D01*
X111000Y577571D01*
X116079D01*
X118618Y580111D01*
Y587728D01*
X538731Y731515D02*
X533652D01*
X536191D01*
Y718819D01*
X533652Y716280D01*
X531113D01*
X528574Y718819D01*
X543809Y716280D02*
X548887D01*
X546348D01*
Y731515D01*
X543809Y728976D01*
X111757Y411222D02*
X109218Y413761D01*
X104139D01*
X101600Y411222D01*
Y408683D01*
X104139Y406143D01*
X109218D01*
X111757Y403604D01*
Y401065D01*
X109218Y398526D01*
X104139D01*
X101600Y401065D01*
X116835Y413761D02*
Y398526D01*
X121913Y403604D01*
X126992Y398526D01*
Y413761D01*
X132070Y395987D02*
X142227D01*
X147305Y398526D02*
Y408683D01*
X152384Y413761D01*
X157462Y408683D01*
Y398526D01*
Y406143D01*
X147305D01*
X172697Y411222D02*
X170158Y413761D01*
X165079D01*
X162540Y411222D01*
Y401065D01*
X165079Y398526D01*
X170158D01*
X172697Y401065D01*
X187932Y411222D02*
X185393Y413761D01*
X180315D01*
X177775Y411222D01*
Y401065D01*
X180315Y398526D01*
X185393D01*
X187932Y401065D01*
D11*
X716209Y400650D02*
G03*
X716209Y400650I-762J0D01*
G01*
X595630Y489458D02*
X604594D01*
X698246Y480494D02*
Y489458D01*
Y386842D02*
Y395806D01*
X595630Y386842D02*
X604594D01*
X595630Y480494D02*
Y489458D01*
X689282D02*
X698246D01*
X595630Y386842D02*
Y395806D01*
X689282Y386842D02*
X698246D01*
D12*
X826939Y6011D02*
Y39878D01*
X822706Y1778D02*
X826939Y6011D01*
X818473D02*
X822706Y1778D01*
X818473Y6011D02*
Y39878D01*
X801539Y6011D02*
Y39878D01*
X797306Y1778D02*
X801539Y6011D01*
X793073D02*
X797306Y1778D01*
X793073Y6011D02*
Y39878D01*
X776139Y6011D02*
Y39878D01*
X771906Y1778D02*
X776139Y6011D01*
X767673D02*
X771906Y1778D01*
X767673Y6011D02*
Y39878D01*
X759206Y52578D02*
X835406D01*
X759206Y39878D02*
Y52578D01*
X835406Y39878D02*
Y52578D01*
X759206Y39878D02*
X835406D01*
X725424Y40386D02*
Y53086D01*
X716957Y6519D02*
Y40386D01*
X666157Y6519D02*
Y40386D01*
X657691Y6519D02*
Y40386D01*
X691557Y6519D02*
Y40386D01*
X683091Y6519D02*
Y40386D01*
X712724Y2286D02*
X716957Y6519D01*
X708491D02*
Y40386D01*
Y6519D02*
X712724Y2286D01*
X687324D02*
X691557Y6519D01*
X661924Y2286D02*
X666157Y6519D01*
X657691D02*
X661924Y2286D01*
X683091Y6519D02*
X687324Y2286D01*
X598424Y40386D02*
X725424D01*
X598424Y53086D02*
X725424D01*
X598424Y40386D02*
Y53086D01*
X632291Y6519D02*
Y40386D01*
X640757Y6519D02*
Y40386D01*
X615357Y6519D02*
Y40386D01*
X636524Y2286D02*
X640757Y6519D01*
X632291D02*
X636524Y2286D01*
X606891Y6519D02*
X611124Y2286D01*
X606891Y6519D02*
Y40386D01*
X611124Y2286D02*
X615357Y6519D01*
D13*
X763250Y364654D02*
X768250D01*
Y369654D01*
X737770Y363384D02*
X742770D01*
X737770D02*
Y368384D01*
Y388864D02*
Y393864D01*
X742770D01*
X763250D02*
X768250D01*
Y388864D02*
Y393864D01*
D14*
X751840Y40894D02*
X746762D01*
Y43433D01*
X747608Y44280D01*
X749301D01*
X750147Y43433D01*
Y40894D01*
X751840Y49358D02*
Y45972D01*
X748454Y49358D01*
X747608D01*
X746762Y48512D01*
Y46819D01*
X747608Y45972D01*
X576326Y501394D02*
Y497162D01*
X577172Y496316D01*
X578865D01*
X579712Y497162D01*
Y501394D01*
X581404Y496316D02*
X583097D01*
X582251D01*
Y501394D01*
X581404Y500548D01*
X771654Y371348D02*
X776732Y374734D01*
X771654D02*
X776732Y371348D01*
Y376426D02*
Y378119D01*
Y377273D01*
X771654D01*
X772500Y376426D01*
X1108622Y132983D02*
X1109468Y133829D01*
Y135522D01*
X1108622Y136368D01*
X1107775D01*
X1106929Y135522D01*
Y133829D01*
X1106083Y132983D01*
X1105236D01*
X1104390Y133829D01*
Y135522D01*
X1105236Y136368D01*
X1109468Y131290D02*
X1104390D01*
X1106083Y129597D01*
X1104390Y127904D01*
X1109468D01*
X1103544Y126211D02*
Y122826D01*
X1104390Y121133D02*
X1109468D01*
Y118594D01*
X1108622Y117747D01*
X1106929D01*
X1106083Y118594D01*
Y121133D01*
X1109468Y116055D02*
X1105236D01*
X1104390Y115208D01*
Y113515D01*
X1105236Y112669D01*
X1109468D01*
X1108622Y107591D02*
X1109468Y108437D01*
Y110130D01*
X1108622Y110976D01*
X1107775D01*
X1106929Y110130D01*
Y108437D01*
X1106083Y107591D01*
X1105236D01*
X1104390Y108437D01*
Y110130D01*
X1105236Y110976D01*
X1109468Y105898D02*
X1104390D01*
X1106929D01*
Y102512D01*
X1109468D01*
X1104390D01*
X999236Y155448D02*
X994158D01*
Y157987D01*
X995004Y158834D01*
X996697D01*
X997543Y157987D01*
Y155448D01*
Y157141D02*
X999236Y158834D01*
Y163912D02*
Y160526D01*
X995850Y163912D01*
X995004D01*
X994158Y163065D01*
Y161373D01*
X995004Y160526D01*
X999236Y165605D02*
Y167297D01*
Y166451D01*
X994158D01*
X995004Y165605D01*
X847598Y403098D02*
X842520D01*
Y405637D01*
X843366Y406484D01*
X845059D01*
X845905Y405637D01*
Y403098D01*
Y404791D02*
X847598Y406484D01*
Y411562D02*
Y408176D01*
X844212Y411562D01*
X843366D01*
X842520Y410715D01*
Y409023D01*
X843366Y408176D01*
Y413255D02*
X842520Y414101D01*
Y415794D01*
X843366Y416640D01*
X846752D01*
X847598Y415794D01*
Y414101D01*
X846752Y413255D01*
X843366D01*
X1137412Y579374D02*
Y584452D01*
X1139951D01*
X1140798Y583606D01*
Y581913D01*
X1139951Y581067D01*
X1137412D01*
X1139105D02*
X1140798Y579374D01*
X1142490D02*
X1144183D01*
X1143337D01*
Y584452D01*
X1142490Y583606D01*
X1146722Y580220D02*
X1147569Y579374D01*
X1149261D01*
X1150108Y580220D01*
Y583606D01*
X1149261Y584452D01*
X1147569D01*
X1146722Y583606D01*
Y582760D01*
X1147569Y581913D01*
X1150108D01*
X1263650Y277368D02*
Y282446D01*
X1266189D01*
X1267036Y281600D01*
Y279907D01*
X1266189Y279061D01*
X1263650D01*
X1265343D02*
X1267036Y277368D01*
X1268728D02*
X1270421D01*
X1269575D01*
Y282446D01*
X1268728Y281600D01*
X1272960D02*
X1273807Y282446D01*
X1275499D01*
X1276346Y281600D01*
Y280754D01*
X1275499Y279907D01*
X1276346Y279061D01*
Y278214D01*
X1275499Y277368D01*
X1273807D01*
X1272960Y278214D01*
Y279061D01*
X1273807Y279907D01*
X1272960Y280754D01*
Y281600D01*
X1273807Y279907D02*
X1275499D01*
X879856Y283718D02*
Y288796D01*
X882395D01*
X883242Y287950D01*
Y286257D01*
X882395Y285411D01*
X879856D01*
X881549D02*
X883242Y283718D01*
X884934D02*
X886627D01*
X885781D01*
Y288796D01*
X884934Y287950D01*
X889166Y288796D02*
X892552D01*
Y287950D01*
X889166Y284564D01*
Y283718D01*
X372110Y350012D02*
Y355090D01*
X374649D01*
X375496Y354244D01*
Y352551D01*
X374649Y351705D01*
X372110D01*
X373803D02*
X375496Y350012D01*
X377188D02*
X378881D01*
X378035D01*
Y355090D01*
X377188Y354244D01*
X384806Y355090D02*
X383113Y354244D01*
X381420Y352551D01*
Y350858D01*
X382267Y350012D01*
X383960D01*
X384806Y350858D01*
Y351705D01*
X383960Y352551D01*
X381420D01*
X371856Y322834D02*
Y327912D01*
X374395D01*
X375242Y327066D01*
Y325373D01*
X374395Y324527D01*
X371856D01*
X373549D02*
X375242Y322834D01*
X376934D02*
X378627D01*
X377781D01*
Y327912D01*
X376934Y327066D01*
X384552Y327912D02*
X381166D01*
Y325373D01*
X382859Y326220D01*
X383705D01*
X384552Y325373D01*
Y323680D01*
X383705Y322834D01*
X382013D01*
X381166Y323680D01*
X371602Y297942D02*
Y303020D01*
X374141D01*
X374988Y302174D01*
Y300481D01*
X374141Y299635D01*
X371602D01*
X373295D02*
X374988Y297942D01*
X376680D02*
X378373D01*
X377527D01*
Y303020D01*
X376680Y302174D01*
X383451Y297942D02*
Y303020D01*
X380912Y300481D01*
X384298D01*
X372110Y272288D02*
Y277366D01*
X374649D01*
X375496Y276520D01*
Y274827D01*
X374649Y273981D01*
X372110D01*
X373803D02*
X375496Y272288D01*
X377188D02*
X378881D01*
X378035D01*
Y277366D01*
X377188Y276520D01*
X381420D02*
X382267Y277366D01*
X383960D01*
X384806Y276520D01*
Y275674D01*
X383960Y274827D01*
X383113D01*
X383960D01*
X384806Y273981D01*
Y273134D01*
X383960Y272288D01*
X382267D01*
X381420Y273134D01*
X374650Y191008D02*
Y196086D01*
X377189D01*
X378036Y195240D01*
Y193547D01*
X377189Y192701D01*
X374650D01*
X376343D02*
X378036Y191008D01*
X379728D02*
X381421D01*
X380575D01*
Y196086D01*
X379728Y195240D01*
X387346Y191008D02*
X383960D01*
X387346Y194394D01*
Y195240D01*
X386499Y196086D01*
X384807D01*
X383960Y195240D01*
X376174Y165100D02*
Y170178D01*
X378713D01*
X379560Y169332D01*
Y167639D01*
X378713Y166793D01*
X376174D01*
X377867D02*
X379560Y165100D01*
X381252D02*
X382945D01*
X382099D01*
Y170178D01*
X381252Y169332D01*
X385484Y165100D02*
X387177D01*
X386331D01*
Y170178D01*
X385484Y169332D01*
X373380Y217424D02*
Y222502D01*
X375919D01*
X376766Y221656D01*
Y219963D01*
X375919Y219117D01*
X373380D01*
X375073D02*
X376766Y217424D01*
X378458D02*
X380151D01*
X379305D01*
Y222502D01*
X378458Y221656D01*
X382690D02*
X383537Y222502D01*
X385229D01*
X386076Y221656D01*
Y218270D01*
X385229Y217424D01*
X383537D01*
X382690Y218270D01*
Y221656D01*
X377952Y245110D02*
Y250188D01*
X380491D01*
X381338Y249342D01*
Y247649D01*
X380491Y246803D01*
X377952D01*
X379645D02*
X381338Y245110D01*
X383030Y245956D02*
X383877Y245110D01*
X385569D01*
X386416Y245956D01*
Y249342D01*
X385569Y250188D01*
X383877D01*
X383030Y249342D01*
Y248496D01*
X383877Y247649D01*
X386416D01*
X737362Y351790D02*
X732284D01*
Y354329D01*
X733130Y355176D01*
X734823D01*
X735669Y354329D01*
Y351790D01*
Y353483D02*
X737362Y355176D01*
X733130Y356868D02*
X732284Y357715D01*
Y359408D01*
X733130Y360254D01*
X733976D01*
X734823Y359408D01*
X735669Y360254D01*
X736516D01*
X737362Y359408D01*
Y357715D01*
X736516Y356868D01*
X735669D01*
X734823Y357715D01*
X733976Y356868D01*
X733130D01*
X734823Y357715D02*
Y359408D01*
X745236Y437134D02*
Y442212D01*
X747775D01*
X748622Y441366D01*
Y439673D01*
X747775Y438827D01*
X745236D01*
X746929D02*
X748622Y437134D01*
X750314Y442212D02*
X753700D01*
Y441366D01*
X750314Y437980D01*
Y437134D01*
X773141Y397510D02*
X768063D01*
Y400049D01*
X768909Y400896D01*
X770602D01*
X771448Y400049D01*
Y397510D01*
Y399203D02*
X773141Y400896D01*
X768063Y405974D02*
X768909Y404281D01*
X770602Y402588D01*
X772294D01*
X773141Y403435D01*
Y405127D01*
X772294Y405974D01*
X771448D01*
X770602Y405127D01*
Y402588D01*
X237490Y576326D02*
Y581404D01*
X240029D01*
X240876Y580558D01*
Y578865D01*
X240029Y578019D01*
X237490D01*
X239183D02*
X240876Y576326D01*
X245954Y581404D02*
X242568D01*
Y578865D01*
X244261Y579712D01*
X245107D01*
X245954Y578865D01*
Y577172D01*
X245107Y576326D01*
X243415D01*
X242568Y577172D01*
X237236Y527304D02*
Y532382D01*
X239775D01*
X240622Y531536D01*
Y529843D01*
X239775Y528997D01*
X237236D01*
X238929D02*
X240622Y527304D01*
X244853D02*
Y532382D01*
X242314Y529843D01*
X245700D01*
X976122Y96520D02*
Y101598D01*
X978661D01*
X979508Y100752D01*
Y99059D01*
X978661Y98213D01*
X976122D01*
X977815D02*
X979508Y96520D01*
X981200Y100752D02*
X982047Y101598D01*
X983739D01*
X984586Y100752D01*
Y99906D01*
X983739Y99059D01*
X982893D01*
X983739D01*
X984586Y98213D01*
Y97366D01*
X983739Y96520D01*
X982047D01*
X981200Y97366D01*
X996442Y41402D02*
Y36324D01*
X993903D01*
X993056Y37170D01*
Y38863D01*
X993903Y39709D01*
X996442D01*
X994749D02*
X993056Y41402D01*
X987978D02*
X991364D01*
X987978Y38016D01*
Y37170D01*
X988824Y36324D01*
X990517D01*
X991364Y37170D01*
X986282Y107442D02*
X981204D01*
Y109981D01*
X982050Y110828D01*
X983743D01*
X984589Y109981D01*
Y107442D01*
Y109135D02*
X986282Y110828D01*
Y112520D02*
Y114213D01*
Y113367D01*
X981204D01*
X982050Y112520D01*
X594106Y43942D02*
X589028D01*
Y46481D01*
X589874Y47328D01*
X591567D01*
X592413Y46481D01*
Y43942D01*
X594106Y49020D02*
Y50713D01*
Y49867D01*
X589028D01*
X589874Y49020D01*
X730334Y451018D02*
X729487Y451864D01*
X727794D01*
X726948Y451018D01*
Y447632D01*
X727794Y446786D01*
X729487D01*
X730334Y447632D01*
X732026D02*
X732873Y446786D01*
X734566D01*
X735412Y447632D01*
Y451018D01*
X734566Y451864D01*
X732873D01*
X732026Y451018D01*
Y450172D01*
X732873Y449325D01*
X735412D01*
X545422Y411140D02*
X544575Y411986D01*
X542882D01*
X542036Y411140D01*
Y407754D01*
X542882Y406908D01*
X544575D01*
X545422Y407754D01*
X547114Y411140D02*
X547961Y411986D01*
X549654D01*
X550500Y411140D01*
Y410294D01*
X549654Y409447D01*
X550500Y408601D01*
Y407754D01*
X549654Y406908D01*
X547961D01*
X547114Y407754D01*
Y408601D01*
X547961Y409447D01*
X547114Y410294D01*
Y411140D01*
X547961Y409447D02*
X549654D01*
X768264Y481380D02*
X769110Y482227D01*
Y483920D01*
X768264Y484766D01*
X764878D01*
X764032Y483920D01*
Y482227D01*
X764878Y481380D01*
X769110Y479688D02*
Y476302D01*
X768264D01*
X764878Y479688D01*
X764032D01*
X705188Y339766D02*
X704341Y340612D01*
X702648D01*
X701802Y339766D01*
Y336380D01*
X702648Y335534D01*
X704341D01*
X705188Y336380D01*
X710266Y340612D02*
X708573Y339766D01*
X706880Y338073D01*
Y336380D01*
X707727Y335534D01*
X709419D01*
X710266Y336380D01*
Y337227D01*
X709419Y338073D01*
X706880D01*
X587080Y527896D02*
X586234Y527049D01*
Y525356D01*
X587080Y524510D01*
X590466D01*
X591312Y525356D01*
Y527049D01*
X590466Y527896D01*
X586234Y532974D02*
Y529588D01*
X588773D01*
X587926Y531281D01*
Y532127D01*
X588773Y532974D01*
X590466D01*
X591312Y532127D01*
Y530435D01*
X590466Y529588D01*
X670390Y541076D02*
X669543Y541922D01*
X667850D01*
X667004Y541076D01*
Y537690D01*
X667850Y536844D01*
X669543D01*
X670390Y537690D01*
X674622Y536844D02*
Y541922D01*
X672082Y539383D01*
X675468D01*
X486242Y94907D02*
X485396Y94060D01*
Y92368D01*
X486242Y91521D01*
X489628D01*
X490474Y92368D01*
Y94060D01*
X489628Y94907D01*
X486242Y96600D02*
X485396Y97446D01*
Y99139D01*
X486242Y99985D01*
X487088D01*
X487935Y99139D01*
Y98292D01*
Y99139D01*
X488781Y99985D01*
X489628D01*
X490474Y99139D01*
Y97446D01*
X489628Y96600D01*
X914230Y53254D02*
X913383Y54100D01*
X911690D01*
X910844Y53254D01*
Y49868D01*
X911690Y49022D01*
X913383D01*
X914230Y49868D01*
X919308Y49022D02*
X915922D01*
X919308Y52408D01*
Y53254D01*
X918462Y54100D01*
X916769D01*
X915922Y53254D01*
X515452Y96096D02*
X514606Y95249D01*
Y93556D01*
X515452Y92710D01*
X518838D01*
X519684Y93556D01*
Y95249D01*
X518838Y96096D01*
X519684Y97788D02*
Y99481D01*
Y98635D01*
X514606D01*
X515452Y97788D01*
D15*
X824992Y78232D02*
X819914D01*
Y80771D01*
X820760Y81618D01*
X822453D01*
X823299Y80771D01*
Y78232D01*
Y79925D02*
X824992Y81618D01*
X819914Y83310D02*
X824992Y86696D01*
X819914D02*
X824992Y83310D01*
X793752Y78232D02*
Y81618D01*
Y79925D01*
X798830D01*
X793752Y83310D02*
X798830Y86696D01*
X793752D02*
X798830Y83310D01*
X689864Y79248D02*
X684786D01*
X689864Y82634D01*
X684786D01*
X689864Y84326D02*
X684786D01*
Y86866D01*
X685632Y87712D01*
X687325D01*
X688171Y86866D01*
Y84326D01*
Y86019D02*
X689864Y87712D01*
X685632Y92790D02*
X684786Y91944D01*
Y90251D01*
X685632Y89405D01*
X686478D01*
X687325Y90251D01*
Y91944D01*
X688171Y92790D01*
X689018D01*
X689864Y91944D01*
Y90251D01*
X689018Y89405D01*
X684786Y94483D02*
Y97869D01*
Y96176D01*
X689864D01*
X658962Y82380D02*
X658116Y81533D01*
Y79840D01*
X658962Y78994D01*
X659808D01*
X660655Y79840D01*
Y81533D01*
X661501Y82380D01*
X662348D01*
X663194Y81533D01*
Y79840D01*
X662348Y78994D01*
X658116Y84072D02*
X663194D01*
X661501Y85765D01*
X663194Y87458D01*
X658116D01*
X658962Y92536D02*
X658116Y91690D01*
Y89997D01*
X658962Y89151D01*
X662348D01*
X663194Y89997D01*
Y91690D01*
X662348Y92536D01*
X658116Y94229D02*
X663194D01*
Y97615D01*
X658116Y99307D02*
X663194D01*
X661501D01*
X658116Y102693D01*
X660655Y100154D01*
X663194Y102693D01*
X634324Y82888D02*
X633478Y82041D01*
Y80348D01*
X634324Y79502D01*
X635170D01*
X636017Y80348D01*
Y82041D01*
X636863Y82888D01*
X637710D01*
X638556Y82041D01*
Y80348D01*
X637710Y79502D01*
X633478Y84580D02*
X638556D01*
X636863Y86273D01*
X638556Y87966D01*
X633478D01*
Y89659D02*
X638556D01*
Y92198D01*
X637710Y93044D01*
X634324D01*
X633478Y92198D01*
Y89659D01*
Y94737D02*
Y96430D01*
Y95583D01*
X638556D01*
Y94737D01*
Y96430D01*
X633478Y101508D02*
Y99815D01*
X634324Y98969D01*
X637710D01*
X638556Y99815D01*
Y101508D01*
X637710Y102355D01*
X634324D01*
X633478Y101508D01*
X770214Y81618D02*
X769368Y80771D01*
Y79078D01*
X770214Y78232D01*
X773600D01*
X774446Y79078D01*
Y80771D01*
X773600Y81618D01*
X771907D01*
Y79925D01*
X774446Y83310D02*
X769368D01*
X774446Y86696D01*
X769368D01*
Y88389D02*
X774446D01*
Y90928D01*
X773600Y91774D01*
X770214D01*
X769368Y90928D01*
Y88389D01*
X711286Y82380D02*
X710440Y81533D01*
Y79840D01*
X711286Y78994D01*
X714672D01*
X715518Y79840D01*
Y81533D01*
X714672Y82380D01*
X712979D01*
Y80687D01*
X715518Y84072D02*
X710440D01*
X715518Y87458D01*
X710440D01*
Y89151D02*
X715518D01*
Y91690D01*
X714672Y92536D01*
X711286D01*
X710440Y91690D01*
Y89151D01*
X607908Y79502D02*
X607062Y80348D01*
Y82041D01*
X607908Y82888D01*
X608754D01*
X609601Y82041D01*
Y81195D01*
Y82041D01*
X610447Y82888D01*
X611294D01*
X612140Y82041D01*
Y80348D01*
X611294Y79502D01*
X607062Y84580D02*
X610447D01*
X612140Y86273D01*
X610447Y87966D01*
X607062D01*
X607908Y89659D02*
X607062Y90505D01*
Y92198D01*
X607908Y93044D01*
X608754D01*
X609601Y92198D01*
Y91351D01*
Y92198D01*
X610447Y93044D01*
X611294D01*
X612140Y92198D01*
Y90505D01*
X611294Y89659D01*
D16*
X924561Y57912D02*
Y60451D01*
Y59182D01*
X928370D01*
X924561Y64260D02*
Y61721D01*
X928370D01*
Y64260D01*
X926466Y61721D02*
Y62990D01*
X928370Y65530D02*
X924561D01*
X925831Y66799D01*
X924561Y68069D01*
X928370D01*
Y69338D02*
X924561D01*
Y71243D01*
X925196Y71877D01*
X926466D01*
X927100Y71243D01*
Y69338D01*
M02*
