G04*
G04 #@! TF.GenerationSoftware,Altium Limited,Altium Designer,18.1.9 (240)*
G04*
G04 Layer_Color=255*
%FSLAX44Y44*%
%MOMM*%
G71*
G01*
G75*
%ADD33C,1.9812*%
%ADD36C,1.7780*%
%ADD45C,1.5000*%
%ADD46R,1.5000X1.5000*%
%ADD47C,4.0000*%
%ADD48C,1.6000*%
%ADD49C,2.4892*%
%ADD50C,1.5748*%
%ADD51C,2.1000*%
%ADD52C,1.5240*%
%ADD53C,1.5500*%
%ADD54R,1.5500X1.5500*%
%ADD55C,14.7320*%
%ADD56C,3.5052*%
D33*
X177444Y472684D02*
D03*
X145644D02*
D03*
X145644Y630184D02*
D03*
X177444Y630184D02*
D03*
D36*
X1074632Y342948D02*
D03*
X982032Y358648D02*
D03*
X1167232D02*
D03*
X1074632Y451248D02*
D03*
X1163332Y498348D02*
D03*
X1236232Y306648D02*
D03*
X1165332Y221948D02*
D03*
X985932Y218948D02*
D03*
X913032Y410648D02*
D03*
D45*
X822706Y65278D02*
D03*
X797306D02*
D03*
X712724Y65786D02*
D03*
X687324D02*
D03*
X661924D02*
D03*
X636524D02*
D03*
D46*
X771906Y65278D02*
D03*
X611124Y65786D02*
D03*
D47*
X1074632Y208648D02*
D03*
Y508648D02*
D03*
X924632Y358648D02*
D03*
X1224632D02*
D03*
D48*
X1029632D02*
D03*
X1119632D02*
D03*
D49*
X161544Y504434D02*
D03*
Y598434D02*
D03*
Y551434D02*
D03*
D50*
X271780Y379476D02*
D03*
X246380D02*
D03*
X220980D02*
D03*
X195580D02*
D03*
X170180D02*
D03*
Y125476D02*
D03*
X195580D02*
D03*
X220980D02*
D03*
X246380D02*
D03*
X271780D02*
D03*
D51*
X727964Y704342D02*
D03*
X570484Y635000D02*
D03*
X727964D02*
D03*
X570484Y704342D02*
D03*
D52*
X706374Y673862D02*
D03*
X592074D02*
D03*
D53*
X642874Y610362D02*
D03*
X617474D02*
D03*
X668274D02*
D03*
X680974Y584962D02*
D03*
X655574D02*
D03*
X604774D02*
D03*
X630174D02*
D03*
D54*
X693674Y610362D02*
D03*
D55*
X843788Y551180D02*
D03*
X449834D02*
D03*
X646176Y224536D02*
D03*
D56*
X1076198Y607822D02*
D03*
X1215898Y211582D02*
D03*
X318516Y635254D02*
D03*
X919869Y212344D02*
D03*
X321310Y77724D02*
D03*
M02*
