G04*
G04 #@! TF.GenerationSoftware,Altium Limited,Altium Designer,18.1.9 (240)*
G04*
G04 Layer_Color=16711935*
%FSLAX44Y44*%
%MOMM*%
G71*
G01*
G75*
%ADD59C,0.0000*%
%ADD60C,0.1000*%
%ADD61C,0.0254*%
D59*
X692881Y400650D02*
G03*
X692881Y400650I-762J0D01*
G01*
D60*
X523102Y115394D02*
X537602D01*
Y93394D02*
Y115394D01*
X523102Y93394D02*
Y115394D01*
Y93394D02*
X537602D01*
X1138798Y551610D02*
X1153298D01*
X1138798D02*
Y573610D01*
X1153298Y551610D02*
Y573610D01*
X1138798D02*
X1153298D01*
X692736Y518784D02*
Y533284D01*
X670736Y518784D02*
Y533284D01*
Y518784D02*
X692736D01*
X670736Y533284D02*
X692736D01*
X740078Y417184D02*
Y431684D01*
X762078Y417184D02*
Y431684D01*
X740078D02*
X762078D01*
X740078Y417184D02*
X762078D01*
X740405Y397626D02*
Y412126D01*
X762405Y397626D02*
Y412126D01*
X740405D02*
X762405D01*
X740405Y397626D02*
X762405D01*
X744590Y461320D02*
X759090D01*
X744590Y483320D02*
X759090D01*
X744590Y461320D02*
Y483320D01*
X759090Y461320D02*
Y483320D01*
X725794Y460678D02*
X740294D01*
X725794Y482678D02*
X740294D01*
X725794Y460678D02*
Y482678D01*
X740294Y460678D02*
Y482678D01*
X698786Y348664D02*
X713286D01*
X698786Y370664D02*
X713286D01*
X698786Y348664D02*
Y370664D01*
X713286Y348664D02*
Y370664D01*
X621870Y521070D02*
Y535570D01*
X599870Y521070D02*
Y535570D01*
Y521070D02*
X621870D01*
X599870Y535570D02*
X621870D01*
X494908Y92886D02*
X509408D01*
X494908Y114886D02*
X509408D01*
X494908Y92886D02*
Y114886D01*
X509408Y92886D02*
Y114886D01*
X740510Y391324D02*
X765510D01*
X740510Y367354D02*
Y391324D01*
Y367354D02*
X765510D01*
Y391324D01*
X1258178Y248588D02*
X1272678D01*
X1258178Y270588D02*
X1272678D01*
X1258178Y248588D02*
Y270588D01*
X1272678Y248588D02*
Y270588D01*
X975476Y148004D02*
X989976D01*
X975476Y170004D02*
X989976D01*
X975476Y148004D02*
Y170004D01*
X989976Y148004D02*
Y170004D01*
X874638Y253668D02*
X889138D01*
X874638Y275668D02*
X889138D01*
X874638Y253668D02*
Y275668D01*
X889138Y253668D02*
Y275668D01*
X742872Y345302D02*
Y359802D01*
X764872Y345302D02*
Y359802D01*
X742872D02*
X764872D01*
X742872Y345302D02*
X764872D01*
X993316Y95874D02*
Y110374D01*
X1015316Y95874D02*
Y110374D01*
X993316D02*
X1015316D01*
X993316Y95874D02*
X1015316D01*
X856918Y402960D02*
Y417460D01*
X878918Y402960D02*
Y417460D01*
X856918D02*
X878918D01*
X856918Y402960D02*
X878918D01*
X999822Y76062D02*
Y90562D01*
X977822Y76062D02*
Y90562D01*
Y76062D02*
X999822D01*
X977822Y90562D02*
X999822D01*
X999060Y46344D02*
Y60844D01*
X977060Y46344D02*
Y60844D01*
Y46344D02*
X999060D01*
X977060Y60844D02*
X999060D01*
X393622Y150992D02*
Y165492D01*
X415622Y150992D02*
Y165492D01*
X393622D02*
X415622D01*
X393622Y150992D02*
X415622D01*
X393622Y176646D02*
Y191146D01*
X415622Y176646D02*
Y191146D01*
X393622D02*
X415622D01*
X393622Y176646D02*
X415622D01*
X392860Y255640D02*
Y270140D01*
X414860Y255640D02*
Y270140D01*
X392860D02*
X414860D01*
X392860Y255640D02*
X414860D01*
X392352Y282310D02*
Y296810D01*
X414352Y282310D02*
Y296810D01*
X392352D02*
X414352D01*
X392352Y282310D02*
X414352D01*
X414098Y306948D02*
Y321448D01*
X392098Y306948D02*
Y321448D01*
Y306948D02*
X414098D01*
X392098Y321448D02*
X414098D01*
X413844Y332602D02*
Y347102D01*
X391844Y332602D02*
Y347102D01*
Y332602D02*
X413844D01*
X391844Y347102D02*
X413844D01*
X414860Y202554D02*
Y217054D01*
X392860Y202554D02*
Y217054D01*
Y202554D02*
X414860D01*
X392860Y217054D02*
X414860D01*
X415114Y228970D02*
Y243470D01*
X393114Y228970D02*
Y243470D01*
Y228970D02*
X415114D01*
X393114Y243470D02*
X415114D01*
X237352Y544498D02*
Y566498D01*
X251852Y544498D02*
Y566498D01*
X237352Y544498D02*
X251852D01*
X237352Y566498D02*
X251852D01*
X251598Y495476D02*
Y517476D01*
X237098Y495476D02*
Y517476D01*
X251598D01*
X237098Y495476D02*
X251598D01*
X541898Y375080D02*
Y397080D01*
X556398Y375080D02*
Y397080D01*
X541898Y375080D02*
X556398D01*
X541898Y397080D02*
X556398D01*
X913052Y27040D02*
X935052D01*
X913052Y41540D02*
X935052D01*
Y27040D02*
Y41540D01*
X913052Y27040D02*
Y41540D01*
D61*
X696976Y388112D02*
Y488188D01*
X596900Y388112D02*
X696976D01*
X596900D02*
Y488188D01*
X696976D01*
X684276Y388112D02*
X696976Y400812D01*
M02*
