G04*
G04 #@! TF.GenerationSoftware,Altium Limited,Altium Designer,18.1.9 (240)*
G04*
G04 Layer_Physical_Order=1*
G04 Layer_Color=255*
%FSLAX44Y44*%
%MOMM*%
G71*
G01*
G75*
%ADD10C,0.2540*%
%ADD17R,0.8500X0.4500*%
%ADD18R,1.4000X1.1000*%
%ADD19R,1.1000X1.4000*%
%ADD20R,0.3048X1.1938*%
%ADD21R,1.1938X0.3048*%
%ADD22R,0.8000X0.7000*%
%ADD23R,2.1000X2.4000*%
%ADD33C,1.9812*%
%ADD36C,1.7780*%
%ADD45C,1.5000*%
%ADD46R,1.5000X1.5000*%
%ADD47C,4.0000*%
%ADD48C,1.6000*%
%ADD49C,2.4892*%
%ADD50C,1.5748*%
%ADD51C,2.1000*%
%ADD52C,1.5240*%
%ADD53C,1.5500*%
%ADD54R,1.5500X1.5500*%
%ADD55C,14.7320*%
%ADD56C,3.5052*%
%ADD57C,1.2700*%
%ADD58C,0.6350*%
G36*
X1215945Y738200D02*
X1213178Y732648D01*
X1213046Y732263D01*
X1212855Y731904D01*
X1209778Y723650D01*
X1209687Y723254D01*
X1209536Y722877D01*
X1207345Y714345D01*
X1207297Y713941D01*
X1207185Y713550D01*
X1205906Y704835D01*
X1205900Y704429D01*
X1205831Y704028D01*
X1205476Y695227D01*
X1205513Y694821D01*
X1205486Y694416D01*
X1206060Y685626D01*
X1206140Y685227D01*
X1206156Y684821D01*
X1207653Y676141D01*
X1207773Y675752D01*
X1207832Y675350D01*
X1210235Y666876D01*
X1210396Y666502D01*
X1210497Y666108D01*
X1213779Y657934D01*
X1213978Y657580D01*
X1214120Y657199D01*
X1218245Y649415D01*
X1218480Y649084D01*
X1218662Y648720D01*
X1223583Y641414D01*
X1223852Y641110D01*
X1224071Y640767D01*
X1229734Y634020D01*
X1230034Y633746D01*
X1230287Y633428D01*
X1236630Y627315D01*
X1236957Y627074D01*
X1237243Y626784D01*
X1244193Y621374D01*
X1244544Y621168D01*
X1244859Y620910D01*
X1252341Y616262D01*
X1252711Y616094D01*
X1253051Y615871D01*
X1260981Y612036D01*
X1261367Y611908D01*
X1261729Y611722D01*
X1270018Y608744D01*
X1270416Y608658D01*
X1270795Y608511D01*
X1279352Y606422D01*
X1279756Y606378D01*
X1280149Y606272D01*
X1288879Y605096D01*
X1289285Y605095D01*
X1289687Y605031D01*
X1298492Y604781D01*
X1298896Y604823D01*
X1299302Y604801D01*
X1308085Y605480D01*
X1308482Y605564D01*
X1308888Y605585D01*
X1317550Y607186D01*
X1317937Y607311D01*
X1318339Y607375D01*
X1326784Y609878D01*
X1327155Y610044D01*
X1327548Y610149D01*
X1335683Y613529D01*
X1336034Y613732D01*
X1336414Y613879D01*
X1341413Y616605D01*
X1343597Y615308D01*
X1343682Y137364D01*
X1341528Y136018D01*
X1335820Y138804D01*
X1335434Y138933D01*
X1335073Y139121D01*
X1326793Y142129D01*
X1326396Y142217D01*
X1326017Y142365D01*
X1317466Y144485D01*
X1317062Y144530D01*
X1316670Y144638D01*
X1307943Y145845D01*
X1307536Y145848D01*
X1307135Y145914D01*
X1298329Y146195D01*
X1297925Y146155D01*
X1297519Y146178D01*
X1288733Y145530D01*
X1288335Y145447D01*
X1287928Y145428D01*
X1279259Y143858D01*
X1278872Y143734D01*
X1278470Y143672D01*
X1270015Y141197D01*
X1269643Y141033D01*
X1269250Y140929D01*
X1261102Y137577D01*
X1260749Y137375D01*
X1260370Y137230D01*
X1252620Y133039D01*
X1252291Y132801D01*
X1251928Y132616D01*
X1244664Y127632D01*
X1244361Y127361D01*
X1244020Y127139D01*
X1237321Y121418D01*
X1237049Y121116D01*
X1236733Y120859D01*
X1230673Y114464D01*
X1230435Y114135D01*
X1230147Y113847D01*
X1224795Y106849D01*
X1224593Y106496D01*
X1224337Y106180D01*
X1219752Y98657D01*
X1219588Y98285D01*
X1219367Y97943D01*
X1215600Y89979D01*
X1215476Y89592D01*
X1215293Y89229D01*
X1212385Y80913D01*
X1212302Y80515D01*
X1212158Y80135D01*
X1210143Y71558D01*
X1210103Y71154D01*
X1209999Y70760D01*
X1208899Y62019D01*
X1208901Y61612D01*
X1208840Y61210D01*
X1208667Y52402D01*
X1208712Y51998D01*
X1208693Y51592D01*
X1209448Y42814D01*
X1209536Y42417D01*
X1209560Y42011D01*
X1211236Y33362D01*
X1211365Y32976D01*
X1211432Y32575D01*
X1214009Y24151D01*
X1214178Y23781D01*
X1214287Y23389D01*
X1217737Y15282D01*
X1217944Y14932D01*
X1218094Y14554D01*
X1220699Y9875D01*
X1219411Y7685D01*
X136659Y7646D01*
X135323Y9807D01*
X138089Y15354D01*
X138222Y15738D01*
X138413Y16097D01*
X141493Y24351D01*
X141584Y24748D01*
X141735Y25125D01*
X143929Y33657D01*
X143978Y34060D01*
X144089Y34452D01*
X145372Y43168D01*
X145378Y43574D01*
X145447Y43975D01*
X145804Y52777D01*
X145768Y53182D01*
X145794Y53588D01*
X145223Y62379D01*
X145143Y62778D01*
X145127Y63184D01*
X143632Y71866D01*
X143512Y72255D01*
X143453Y72657D01*
X141052Y81133D01*
X140891Y81507D01*
X140790Y81900D01*
X137510Y90077D01*
X137310Y90431D01*
X137169Y90812D01*
X133045Y98597D01*
X132810Y98929D01*
X132629Y99293D01*
X127708Y106600D01*
X127439Y106905D01*
X127220Y107248D01*
X121558Y113997D01*
X121258Y114271D01*
X121005Y114589D01*
X114662Y120704D01*
X114335Y120946D01*
X114050Y121235D01*
X107099Y126648D01*
X106748Y126853D01*
X106434Y127111D01*
X98951Y131762D01*
X98581Y131929D01*
X98241Y132153D01*
X90311Y135989D01*
X89924Y136117D01*
X89563Y136303D01*
X81273Y139282D01*
X80875Y139369D01*
X80496Y139516D01*
X71938Y141606D01*
X71534Y141650D01*
X71141Y141756D01*
X62410Y142933D01*
X62004Y142934D01*
X61602Y142999D01*
X52796Y143249D01*
X52392Y143207D01*
X51986Y143229D01*
X43202Y142551D01*
X42804Y142467D01*
X42398Y142446D01*
X33735Y140846D01*
X33348Y140720D01*
X32947Y140657D01*
X24500Y138153D01*
X24129Y137988D01*
X23736Y137882D01*
X15600Y134503D01*
X15248Y134299D01*
X14869Y134153D01*
X9870Y131426D01*
X7686Y132723D01*
X7686Y612019D01*
X9841Y613363D01*
X15393Y610643D01*
X15776Y610514D01*
X16133Y610327D01*
X24347Y607322D01*
X24741Y607234D01*
X25116Y607085D01*
X33599Y604955D01*
X34000Y604908D01*
X34389Y604800D01*
X43048Y603568D01*
X43451Y603564D01*
X43849Y603497D01*
X52590Y603178D01*
X52992Y603216D01*
X53394Y603190D01*
X62120Y603787D01*
X62516Y603867D01*
X62919Y603884D01*
X71535Y605390D01*
X71920Y605510D01*
X72319Y605570D01*
X80730Y607968D01*
X81101Y608129D01*
X81492Y608229D01*
X89606Y611494D01*
X89957Y611692D01*
X90336Y611833D01*
X98063Y615929D01*
X98392Y616163D01*
X98754Y616342D01*
X106011Y621223D01*
X106314Y621491D01*
X106655Y621707D01*
X113362Y627320D01*
X113635Y627618D01*
X113951Y627868D01*
X120035Y634152D01*
X120275Y634477D01*
X120563Y634759D01*
X125956Y641645D01*
X126161Y641993D01*
X126418Y642304D01*
X131062Y649716D01*
X131229Y650083D01*
X131453Y650419D01*
X135295Y658276D01*
X135424Y658659D01*
X135611Y659017D01*
X138610Y667232D01*
X138698Y667626D01*
X138847Y668002D01*
X140971Y676486D01*
X141017Y676887D01*
X141125Y677276D01*
X142351Y685936D01*
X142355Y686339D01*
X142422Y686737D01*
X142735Y695478D01*
X142696Y695880D01*
X142721Y696283D01*
X142119Y705008D01*
X142039Y705404D01*
X142021Y705807D01*
X140510Y714422D01*
X140388Y714807D01*
X140329Y715206D01*
X137925Y723615D01*
X137764Y723985D01*
X137663Y724376D01*
X134393Y732488D01*
X134194Y732839D01*
X134053Y733218D01*
X131425Y738168D01*
X132734Y740344D01*
X1214608Y740359D01*
X1215945Y738200D01*
D02*
G37*
%LPC*%
G36*
X729234Y717327D02*
Y705612D01*
X740949D01*
X740668Y707746D01*
X739354Y710918D01*
X737264Y713642D01*
X734540Y715732D01*
X731368Y717046D01*
X729234Y717327D01*
D02*
G37*
G36*
X571754D02*
Y705612D01*
X583469D01*
X583188Y707746D01*
X581874Y710918D01*
X579784Y713642D01*
X577060Y715732D01*
X573888Y717046D01*
X571754Y717327D01*
D02*
G37*
G36*
X726694D02*
X724560Y717046D01*
X721388Y715732D01*
X718664Y713642D01*
X716574Y710918D01*
X715260Y707746D01*
X714979Y705612D01*
X726694D01*
Y717327D01*
D02*
G37*
G36*
X569214D02*
X567080Y717046D01*
X563908Y715732D01*
X561184Y713642D01*
X559094Y710918D01*
X557780Y707746D01*
X557499Y705612D01*
X569214D01*
Y717327D01*
D02*
G37*
G36*
X740949Y703072D02*
X729234D01*
Y691357D01*
X731368Y691638D01*
X734540Y692952D01*
X737264Y695042D01*
X739354Y697766D01*
X740668Y700938D01*
X740949Y703072D01*
D02*
G37*
G36*
X583469D02*
X571754D01*
Y691357D01*
X573888Y691638D01*
X577060Y692952D01*
X579784Y695042D01*
X581874Y697766D01*
X583188Y700938D01*
X583469Y703072D01*
D02*
G37*
G36*
X726694D02*
X714979D01*
X715260Y700938D01*
X716574Y697766D01*
X718664Y695042D01*
X721388Y692952D01*
X724560Y691638D01*
X726694Y691357D01*
Y703072D01*
D02*
G37*
G36*
X569214D02*
X557499D01*
X557780Y700938D01*
X559094Y697766D01*
X561184Y695042D01*
X563908Y692952D01*
X567080Y691638D01*
X569214Y691357D01*
Y703072D01*
D02*
G37*
G36*
X706374Y692480D02*
X702742Y692122D01*
X699249Y691062D01*
X696031Y689342D01*
X693209Y687027D01*
X690894Y684205D01*
X689174Y680987D01*
X688114Y677494D01*
X687756Y673862D01*
X688114Y670230D01*
X689174Y666737D01*
X690894Y663519D01*
X693209Y660697D01*
X696031Y658382D01*
X699249Y656662D01*
X702742Y655602D01*
X706374Y655244D01*
X710006Y655602D01*
X713499Y656662D01*
X716717Y658382D01*
X719539Y660697D01*
X721854Y663519D01*
X723574Y666737D01*
X724634Y670230D01*
X724992Y673862D01*
X724634Y677494D01*
X723574Y680987D01*
X721854Y684205D01*
X719539Y687027D01*
X716717Y689342D01*
X713499Y691062D01*
X710006Y692122D01*
X706374Y692480D01*
D02*
G37*
G36*
X592074D02*
X588442Y692122D01*
X584949Y691062D01*
X581731Y689342D01*
X578909Y687027D01*
X576594Y684205D01*
X574874Y680987D01*
X573814Y677494D01*
X573456Y673862D01*
X573814Y670230D01*
X574874Y666737D01*
X576594Y663519D01*
X578909Y660697D01*
X581731Y658382D01*
X584949Y656662D01*
X588442Y655602D01*
X592074Y655244D01*
X595706Y655602D01*
X599199Y656662D01*
X602417Y658382D01*
X605239Y660697D01*
X607554Y663519D01*
X609274Y666737D01*
X610334Y670230D01*
X610692Y673862D01*
X610334Y677494D01*
X609274Y680987D01*
X607554Y684205D01*
X605239Y687027D01*
X602417Y689342D01*
X599199Y691062D01*
X595706Y692122D01*
X592074Y692480D01*
D02*
G37*
G36*
X729234Y647985D02*
Y636270D01*
X740949D01*
X740668Y638404D01*
X739354Y641576D01*
X737264Y644300D01*
X734540Y646390D01*
X731368Y647704D01*
X729234Y647985D01*
D02*
G37*
G36*
X571754D02*
Y636270D01*
X583469D01*
X583188Y638404D01*
X581874Y641576D01*
X579784Y644300D01*
X577060Y646390D01*
X573888Y647704D01*
X571754Y647985D01*
D02*
G37*
G36*
X726694D02*
X724560Y647704D01*
X721388Y646390D01*
X718664Y644300D01*
X716574Y641576D01*
X715260Y638404D01*
X714979Y636270D01*
X726694D01*
Y647985D01*
D02*
G37*
G36*
X569214D02*
X567080Y647704D01*
X563908Y646390D01*
X561184Y644300D01*
X559094Y641576D01*
X557780Y638404D01*
X557499Y636270D01*
X569214D01*
Y647985D01*
D02*
G37*
G36*
X740949Y633730D02*
X729234D01*
Y622015D01*
X731368Y622296D01*
X734540Y623610D01*
X737264Y625700D01*
X739354Y628424D01*
X740668Y631596D01*
X740949Y633730D01*
D02*
G37*
G36*
X583469D02*
X571754D01*
Y622015D01*
X573888Y622296D01*
X577060Y623610D01*
X579784Y625700D01*
X581874Y628424D01*
X583188Y631596D01*
X583469Y633730D01*
D02*
G37*
G36*
X726694D02*
X714979D01*
X715260Y631596D01*
X716574Y628424D01*
X718664Y625700D01*
X721388Y623610D01*
X724560Y622296D01*
X726694Y622015D01*
Y633730D01*
D02*
G37*
G36*
X569214D02*
X557499D01*
X557780Y631596D01*
X559094Y628424D01*
X561184Y625700D01*
X563908Y623610D01*
X567080Y622296D01*
X569214Y622015D01*
Y633730D01*
D02*
G37*
G36*
X699770Y630742D02*
X685546D01*
X684357Y630505D01*
X683348Y629832D01*
X672459Y618942D01*
X670761Y619645D01*
X668274Y619972D01*
X665787Y619645D01*
X663469Y618685D01*
X661479Y617157D01*
X659951Y615167D01*
X658991Y612849D01*
X658664Y610362D01*
X658991Y607875D01*
X659951Y605557D01*
X661479Y603567D01*
X663469Y602039D01*
X665787Y601079D01*
X668274Y600752D01*
X670761Y601079D01*
X673079Y602039D01*
X675069Y603567D01*
X676597Y605557D01*
X677557Y607875D01*
X677884Y610362D01*
X677557Y612849D01*
X676854Y614547D01*
X681606Y619299D01*
X684146Y618247D01*
X684146Y618214D01*
X684146Y618214D01*
X684146Y618031D01*
Y600834D01*
X690566D01*
Y592285D01*
X688026Y591423D01*
X687769Y591757D01*
X685779Y593285D01*
X683461Y594245D01*
X680974Y594572D01*
X678487Y594245D01*
X676169Y593285D01*
X674179Y591757D01*
X672651Y589767D01*
X671691Y587449D01*
X671364Y584962D01*
X671691Y582475D01*
X672394Y580777D01*
X651852Y560235D01*
X651179Y559227D01*
X650942Y558038D01*
Y507841D01*
X651179Y506652D01*
X651657Y505937D01*
X651112Y503855D01*
X650922Y503397D01*
X632546D01*
Y510803D01*
X639110Y517367D01*
X640932Y517607D01*
X642909Y518426D01*
X644607Y519729D01*
X645910Y521427D01*
X646729Y523404D01*
X647008Y525526D01*
X646729Y527648D01*
X645910Y529625D01*
X644607Y531323D01*
X642909Y532626D01*
X640932Y533445D01*
X638810Y533724D01*
X636688Y533445D01*
X634711Y532626D01*
X633013Y531323D01*
X631710Y529625D01*
X630891Y527648D01*
X630612Y525526D01*
X630891Y523404D01*
X631710Y521427D01*
X632869Y519916D01*
X627240Y514287D01*
X626567Y513279D01*
X626330Y512090D01*
Y503397D01*
X618502D01*
Y504159D01*
X617546D01*
Y509265D01*
X620568Y512286D01*
X621241Y513295D01*
X621478Y514484D01*
Y518780D01*
X626410D01*
Y527050D01*
X618370D01*
Y528320D01*
X617100D01*
Y537860D01*
X610330D01*
Y537098D01*
X606478D01*
Y543683D01*
X608031Y544875D01*
X609334Y546573D01*
X610153Y548550D01*
X610432Y550672D01*
X610153Y552794D01*
X609334Y554771D01*
X608031Y556469D01*
X606333Y557772D01*
X604356Y558591D01*
X602234Y558870D01*
X600112Y558591D01*
X598135Y557772D01*
X596437Y556469D01*
X595134Y554771D01*
X594315Y552794D01*
X594036Y550672D01*
X594315Y548550D01*
X595134Y546573D01*
X596437Y544875D01*
X598135Y543572D01*
X600112Y542753D01*
X600262Y542733D01*
Y537098D01*
X596092D01*
Y519542D01*
X600262D01*
Y515846D01*
X600499Y514657D01*
X601172Y513648D01*
X606330Y508491D01*
Y503397D01*
X606136D01*
Y487903D01*
X610374D01*
Y487141D01*
X613168D01*
Y495650D01*
X615708D01*
Y487141D01*
X618502D01*
Y487903D01*
X675374D01*
Y487141D01*
X678168D01*
Y495650D01*
X680708D01*
Y487141D01*
X683502D01*
Y487903D01*
X687740D01*
Y503379D01*
X692809Y508448D01*
X696832D01*
X697242Y507457D01*
X698545Y505759D01*
X700243Y504456D01*
X702220Y503637D01*
X704342Y503358D01*
X706464Y503637D01*
X708441Y504456D01*
X710139Y505759D01*
X711442Y507457D01*
X712261Y509434D01*
X712540Y511556D01*
X712261Y513678D01*
X711442Y515655D01*
X710139Y517353D01*
X708441Y518656D01*
X706464Y519475D01*
X704342Y519754D01*
X702220Y519475D01*
X700243Y518656D01*
X699816Y518328D01*
X697276Y519581D01*
Y524764D01*
X689236D01*
Y526034D01*
X687966D01*
Y535574D01*
X684531D01*
X683479Y538114D01*
X689799Y544434D01*
X690790Y544023D01*
X692912Y543744D01*
X695034Y544023D01*
X697011Y544842D01*
X698709Y546145D01*
X700012Y547843D01*
X700831Y549820D01*
X701110Y551942D01*
X700831Y554064D01*
X700012Y556041D01*
X698709Y557739D01*
X697011Y559042D01*
X695034Y559861D01*
X692912Y560140D01*
X690790Y559861D01*
X688813Y559042D01*
X688305Y558652D01*
X686627Y560566D01*
X714921Y588861D01*
X715595Y589869D01*
X715832Y591058D01*
Y614680D01*
X715595Y615869D01*
X714921Y616878D01*
X701967Y629832D01*
X700959Y630505D01*
X699770Y630742D01*
D02*
G37*
G36*
X177444Y641969D02*
X174394Y641567D01*
X171551Y640390D01*
X169111Y638517D01*
X167238Y636076D01*
X166061Y633234D01*
X165659Y630184D01*
X166061Y627134D01*
X167238Y624292D01*
X169111Y621851D01*
X171551Y619978D01*
X174394Y618801D01*
X177444Y618399D01*
X180494Y618801D01*
X183336Y619978D01*
X185777Y621851D01*
X187650Y624292D01*
X188827Y627134D01*
X189229Y630184D01*
X188827Y633234D01*
X187650Y636076D01*
X185777Y638517D01*
X183336Y640390D01*
X180494Y641567D01*
X177444Y641969D01*
D02*
G37*
G36*
X145644Y641969D02*
X142594Y641567D01*
X139752Y640390D01*
X137311Y638517D01*
X135438Y636076D01*
X134261Y633234D01*
X133859Y630184D01*
X134261Y627134D01*
X135438Y624291D01*
X137311Y621851D01*
X139752Y619978D01*
X142594Y618801D01*
X145644Y618399D01*
X148694Y618801D01*
X151536Y619978D01*
X153977Y621851D01*
X155850Y624291D01*
X157027Y627134D01*
X157429Y630184D01*
X157027Y633234D01*
X155850Y636076D01*
X153977Y638517D01*
X151536Y640390D01*
X148694Y641567D01*
X145644Y641969D01*
D02*
G37*
G36*
X318516Y661732D02*
X314374Y661406D01*
X310334Y660436D01*
X306495Y658846D01*
X302952Y656675D01*
X299793Y653977D01*
X297095Y650817D01*
X294924Y647275D01*
X293334Y643436D01*
X292364Y639396D01*
X292038Y635254D01*
X292364Y631112D01*
X293334Y627072D01*
X294924Y623233D01*
X297095Y619691D01*
X299793Y616531D01*
X302952Y613833D01*
X306495Y611662D01*
X310334Y610072D01*
X314374Y609102D01*
X318516Y608776D01*
X322658Y609102D01*
X326698Y610072D01*
X330537Y611662D01*
X334080Y613833D01*
X337239Y616531D01*
X339937Y619691D01*
X342108Y623233D01*
X343698Y627072D01*
X344668Y631112D01*
X344994Y635254D01*
X344668Y639396D01*
X343698Y643436D01*
X342108Y647275D01*
X339937Y650817D01*
X337239Y653977D01*
X334080Y656675D01*
X330537Y658846D01*
X326698Y660436D01*
X322658Y661406D01*
X318516Y661732D01*
D02*
G37*
G36*
X642874Y619972D02*
X640387Y619645D01*
X638069Y618685D01*
X636079Y617157D01*
X634551Y615167D01*
X633591Y612849D01*
X633264Y610362D01*
X633591Y607875D01*
X634551Y605557D01*
X636079Y603567D01*
X638069Y602039D01*
X640387Y601079D01*
X642874Y600752D01*
X645361Y601079D01*
X647679Y602039D01*
X649669Y603567D01*
X651197Y605557D01*
X652157Y607875D01*
X652484Y610362D01*
X652157Y612849D01*
X651197Y615167D01*
X649669Y617157D01*
X647679Y618685D01*
X645361Y619645D01*
X642874Y619972D01*
D02*
G37*
G36*
X656844Y595174D02*
Y586232D01*
X665786D01*
X665599Y587648D01*
X664562Y590151D01*
X662913Y592301D01*
X660763Y593950D01*
X658260Y594987D01*
X656844Y595174D01*
D02*
G37*
G36*
X654304D02*
X652888Y594987D01*
X650385Y593950D01*
X648235Y592301D01*
X646586Y590151D01*
X645549Y587648D01*
X645362Y586232D01*
X654304D01*
Y595174D01*
D02*
G37*
G36*
X1076198Y634300D02*
X1072056Y633974D01*
X1068016Y633004D01*
X1064177Y631414D01*
X1060635Y629243D01*
X1057475Y626545D01*
X1054777Y623386D01*
X1052606Y619843D01*
X1051016Y616004D01*
X1050046Y611964D01*
X1049720Y607822D01*
X1050046Y603680D01*
X1051016Y599640D01*
X1052606Y595801D01*
X1054777Y592258D01*
X1057475Y589099D01*
X1060635Y586401D01*
X1064177Y584230D01*
X1068016Y582640D01*
X1072056Y581670D01*
X1076198Y581344D01*
X1080340Y581670D01*
X1084380Y582640D01*
X1088219Y584230D01*
X1091761Y586401D01*
X1094921Y589099D01*
X1097619Y592258D01*
X1099790Y595801D01*
X1101380Y599640D01*
X1102350Y603680D01*
X1102676Y607822D01*
X1102350Y611964D01*
X1101380Y616004D01*
X1099790Y619843D01*
X1097619Y623386D01*
X1094921Y626545D01*
X1091761Y629243D01*
X1088219Y631414D01*
X1084380Y633004D01*
X1080340Y633974D01*
X1076198Y634300D01*
D02*
G37*
G36*
X617474Y619972D02*
X614987Y619645D01*
X612669Y618685D01*
X610679Y617157D01*
X609151Y615167D01*
X608448Y613470D01*
X604012D01*
X602823Y613233D01*
X601814Y612560D01*
X569557Y580302D01*
X568883Y579293D01*
X568646Y578104D01*
Y470408D01*
X568883Y469219D01*
X569557Y468210D01*
X579314Y458452D01*
X580323Y457779D01*
X581512Y457542D01*
X581691D01*
Y448758D01*
X495434D01*
X494245Y448521D01*
X493237Y447848D01*
X394019Y348630D01*
X388066D01*
Y342960D01*
X312691D01*
X280455Y375196D01*
X281184Y376956D01*
X281515Y379476D01*
X281184Y381996D01*
X280211Y384344D01*
X278664Y386360D01*
X276648Y387907D01*
X274300Y388880D01*
X271780Y389211D01*
X269260Y388880D01*
X266912Y387907D01*
X264896Y386360D01*
X263349Y384344D01*
X262376Y381996D01*
X262045Y379476D01*
X262376Y376956D01*
X263349Y374608D01*
X264896Y372592D01*
X266912Y371045D01*
X269260Y370072D01*
X271780Y369741D01*
X274300Y370072D01*
X276060Y370801D01*
X309207Y337654D01*
X310215Y336981D01*
X311404Y336744D01*
X388066D01*
Y331074D01*
X398017D01*
X399069Y328534D01*
X393511Y322976D01*
X388320D01*
Y317306D01*
X312945D01*
X255055Y375196D01*
X255784Y376956D01*
X256115Y379476D01*
X255784Y381996D01*
X254811Y384344D01*
X253264Y386360D01*
X251248Y387907D01*
X248900Y388880D01*
X246380Y389211D01*
X243860Y388880D01*
X241512Y387907D01*
X239496Y386360D01*
X237949Y384344D01*
X236976Y381996D01*
X236645Y379476D01*
X236976Y376956D01*
X237949Y374608D01*
X239496Y372592D01*
X241512Y371045D01*
X243860Y370072D01*
X246380Y369741D01*
X248900Y370072D01*
X250660Y370801D01*
X309461Y312001D01*
X310469Y311327D01*
X311658Y311090D01*
X388320D01*
Y305420D01*
X397001D01*
X398053Y302880D01*
X393655Y298482D01*
X393559Y298338D01*
X388574D01*
Y292668D01*
X286783D01*
X204255Y375196D01*
X204984Y376956D01*
X205315Y379476D01*
X204984Y381996D01*
X204011Y384344D01*
X202464Y386360D01*
X200448Y387907D01*
X198100Y388880D01*
X195580Y389211D01*
X193060Y388880D01*
X190712Y387907D01*
X188696Y386360D01*
X187149Y384344D01*
X186176Y381996D01*
X185845Y379476D01*
X186176Y376956D01*
X187149Y374608D01*
X188696Y372592D01*
X190712Y371045D01*
X193060Y370072D01*
X195580Y369741D01*
X198100Y370072D01*
X199860Y370801D01*
X283298Y287362D01*
X284307Y286689D01*
X285496Y286452D01*
X388574D01*
Y280782D01*
X401194D01*
X401902Y279497D01*
X402117Y278242D01*
X395543Y271668D01*
X389082D01*
Y265998D01*
X288053D01*
X178855Y375196D01*
X179584Y376956D01*
X179915Y379476D01*
X179584Y381996D01*
X178611Y384344D01*
X177064Y386360D01*
X175048Y387907D01*
X172700Y388880D01*
X170180Y389211D01*
X167660Y388880D01*
X165312Y387907D01*
X163296Y386360D01*
X161749Y384344D01*
X160776Y381996D01*
X160445Y379476D01*
X160776Y376956D01*
X161749Y374608D01*
X163296Y372592D01*
X165312Y371045D01*
X167660Y370072D01*
X170180Y369741D01*
X172700Y370072D01*
X174460Y370801D01*
X284569Y260693D01*
X285577Y260019D01*
X286766Y259782D01*
X389082D01*
Y254112D01*
X399288D01*
X400078Y251802D01*
X400085Y251572D01*
X394417Y245903D01*
X393811Y244998D01*
X389336D01*
Y239328D01*
X280924D01*
X279735Y239091D01*
X278727Y238417D01*
X174460Y134151D01*
X172700Y134880D01*
X170180Y135211D01*
X167660Y134880D01*
X165312Y133907D01*
X163296Y132360D01*
X161749Y130344D01*
X160776Y127996D01*
X160445Y125476D01*
X160776Y122956D01*
X161749Y120608D01*
X163296Y118592D01*
X165312Y117045D01*
X167660Y116072D01*
X170180Y115741D01*
X172700Y116072D01*
X175048Y117045D01*
X177064Y118592D01*
X178611Y120608D01*
X179584Y122956D01*
X179915Y125476D01*
X179584Y127996D01*
X178855Y129756D01*
X282211Y233112D01*
X389336D01*
Y227442D01*
X396493D01*
X397545Y224902D01*
X394162Y221520D01*
X393489Y220511D01*
X393252Y219322D01*
Y218582D01*
X389082D01*
Y212912D01*
X279908D01*
X278719Y212675D01*
X277710Y212001D01*
X199860Y134151D01*
X198100Y134880D01*
X195580Y135211D01*
X193060Y134880D01*
X190712Y133907D01*
X188696Y132360D01*
X187149Y130344D01*
X186176Y127996D01*
X185845Y125476D01*
X186176Y122956D01*
X187149Y120608D01*
X188696Y118592D01*
X190712Y117045D01*
X193060Y116072D01*
X195580Y115741D01*
X198100Y116072D01*
X200448Y117045D01*
X202464Y118592D01*
X204011Y120608D01*
X204984Y122956D01*
X205315Y125476D01*
X204984Y127996D01*
X204255Y129756D01*
X281195Y206696D01*
X389082D01*
Y201026D01*
X397636D01*
X398406Y198486D01*
X398106Y198286D01*
X394925Y195103D01*
X394251Y194095D01*
X394014Y192906D01*
Y192674D01*
X389844D01*
Y186242D01*
X304038D01*
X302849Y186005D01*
X301840Y185331D01*
X250660Y134151D01*
X248900Y134880D01*
X246380Y135211D01*
X243860Y134880D01*
X241512Y133907D01*
X239496Y132360D01*
X237949Y130344D01*
X236976Y127996D01*
X236645Y125476D01*
X236976Y122956D01*
X237949Y120608D01*
X239496Y118592D01*
X241512Y117045D01*
X243860Y116072D01*
X246380Y115741D01*
X248900Y116072D01*
X251248Y117045D01*
X253264Y118592D01*
X254811Y120608D01*
X255784Y122956D01*
X256115Y125476D01*
X255784Y127996D01*
X255055Y129756D01*
X305325Y180026D01*
X389844D01*
Y175118D01*
X398017D01*
X399069Y172578D01*
X394925Y168433D01*
X394251Y167425D01*
X394170Y167020D01*
X389844D01*
Y161350D01*
X304546D01*
X303357Y161113D01*
X302348Y160439D01*
X276060Y134151D01*
X274300Y134880D01*
X271780Y135211D01*
X269260Y134880D01*
X266912Y133907D01*
X264896Y132360D01*
X263349Y130344D01*
X262376Y127996D01*
X262045Y125476D01*
X262376Y122956D01*
X263349Y120608D01*
X264896Y118592D01*
X266912Y117045D01*
X269260Y116072D01*
X271780Y115741D01*
X274300Y116072D01*
X276648Y117045D01*
X278664Y118592D01*
X280211Y120608D01*
X281184Y122956D01*
X281515Y125476D01*
X281184Y127996D01*
X280455Y129756D01*
X305833Y155134D01*
X389844D01*
Y149464D01*
X402304D01*
X404400Y149464D01*
X406940Y149464D01*
X419400D01*
Y155134D01*
X425498D01*
X426224Y153381D01*
X427527Y151683D01*
X429225Y150380D01*
X431202Y149561D01*
X433324Y149282D01*
X435446Y149561D01*
X437423Y150380D01*
X439121Y151683D01*
X440424Y153381D01*
X441243Y155358D01*
X441522Y157480D01*
X441243Y159602D01*
X440424Y161579D01*
X439121Y163277D01*
X437423Y164580D01*
X435446Y165399D01*
X433324Y165678D01*
X431202Y165399D01*
X429225Y164580D01*
X427527Y163277D01*
X426224Y161579D01*
X426129Y161350D01*
X419400D01*
X419400Y167020D01*
X421392Y168342D01*
X446278D01*
X447467Y168579D01*
X448475Y169252D01*
X596917Y317694D01*
X636206D01*
X636394Y315154D01*
X628387Y313967D01*
X619707Y311792D01*
X611282Y308778D01*
X603193Y304952D01*
X595518Y300352D01*
X588330Y295021D01*
X581700Y289012D01*
X575691Y282382D01*
X570360Y275194D01*
X565760Y267519D01*
X561934Y259430D01*
X558920Y251005D01*
X556745Y242325D01*
X555432Y233473D01*
X554993Y224536D01*
X555432Y215599D01*
X556745Y206747D01*
X558920Y198067D01*
X561934Y189642D01*
X565760Y181553D01*
X570360Y173878D01*
X575691Y166690D01*
X581700Y160060D01*
X588330Y154051D01*
X595518Y148720D01*
X603193Y144120D01*
X611282Y140294D01*
X619707Y137280D01*
X628387Y135105D01*
X637239Y133792D01*
X646176Y133353D01*
X655114Y133792D01*
X663965Y135105D01*
X672645Y137280D01*
X681070Y140294D01*
X689159Y144120D01*
X696834Y148720D01*
X704022Y154051D01*
X710652Y160060D01*
X716661Y166690D01*
X721992Y173878D01*
X726592Y181553D01*
X730418Y189642D01*
X733432Y198067D01*
X735607Y206747D01*
X736920Y215599D01*
X737359Y224536D01*
X736920Y233473D01*
X735607Y242325D01*
X733432Y251005D01*
X730418Y259430D01*
X726592Y267519D01*
X721992Y275194D01*
X716661Y282382D01*
X710652Y289012D01*
X704022Y295021D01*
X696834Y300352D01*
X689159Y304952D01*
X681070Y308778D01*
X672645Y311792D01*
X663965Y313967D01*
X655958Y315154D01*
X656146Y317694D01*
X713740D01*
X714929Y317931D01*
X715938Y318605D01*
X731432Y334099D01*
X732105Y335107D01*
X732342Y336296D01*
Y382135D01*
X734424Y382880D01*
X734882Y382967D01*
X736445Y381922D01*
X738378Y381538D01*
X740311Y381922D01*
X740982Y382326D01*
X740982Y382326D01*
X743905D01*
X744563Y381343D01*
X746769Y379136D01*
X746769Y379120D01*
X745768Y376544D01*
X745571Y376505D01*
X745386Y376382D01*
X740982D01*
Y365826D01*
X743652D01*
Y361330D01*
X739094D01*
Y343774D01*
X751554D01*
X753650Y343774D01*
X755588D01*
X756450Y341234D01*
X755583Y340569D01*
X754280Y338871D01*
X753461Y336894D01*
X753182Y334772D01*
X753461Y332650D01*
X754280Y330673D01*
X755583Y328975D01*
X756226Y328482D01*
X755364Y325942D01*
X747412D01*
X747002Y326933D01*
X745699Y328631D01*
X744001Y329934D01*
X742024Y330753D01*
X739902Y331032D01*
X737780Y330753D01*
X735803Y329934D01*
X734105Y328631D01*
X732802Y326933D01*
X731983Y324956D01*
X731704Y322834D01*
X731983Y320712D01*
X732802Y318735D01*
X734105Y317037D01*
X735803Y315734D01*
X737780Y314915D01*
X739902Y314636D01*
X742024Y314915D01*
X744001Y315734D01*
X745699Y317037D01*
X747002Y318735D01*
X747412Y319726D01*
X755753D01*
X756518Y318292D01*
X756759Y317186D01*
X755662Y315757D01*
X754843Y313780D01*
X754564Y311658D01*
X754843Y309536D01*
X755662Y307559D01*
X756147Y306927D01*
X754895Y304387D01*
X746650D01*
X746240Y305378D01*
X744937Y307076D01*
X743239Y308379D01*
X741262Y309198D01*
X739140Y309477D01*
X737018Y309198D01*
X735041Y308379D01*
X733343Y307076D01*
X732040Y305378D01*
X731221Y303401D01*
X730942Y301279D01*
X731221Y299157D01*
X732040Y297180D01*
X733343Y295482D01*
X735041Y294179D01*
X737018Y293360D01*
X739140Y293081D01*
X741262Y293360D01*
X742678Y293947D01*
X744410Y292032D01*
X743515Y290865D01*
X742696Y288888D01*
X742417Y286766D01*
X742696Y284644D01*
X743515Y282667D01*
X744818Y280969D01*
X746516Y279666D01*
X748493Y278847D01*
X750615Y278568D01*
X752737Y278847D01*
X754714Y279666D01*
X756412Y280969D01*
X757251Y281024D01*
X776027Y262248D01*
X775055Y259902D01*
X768367D01*
X757339Y270930D01*
X756331Y271603D01*
X755422Y271784D01*
X754290Y273259D01*
X752592Y274562D01*
X750615Y275381D01*
X748493Y275660D01*
X746371Y275381D01*
X744394Y274562D01*
X742696Y273259D01*
X741393Y271561D01*
X740574Y269584D01*
X740295Y267462D01*
X740574Y265340D01*
X741393Y263363D01*
X742696Y261665D01*
X744394Y260362D01*
X746371Y259543D01*
X746877Y259477D01*
X746999Y259432D01*
X747563Y256824D01*
X747178Y256585D01*
X746874Y256459D01*
X745201Y255766D01*
X743503Y254463D01*
X742200Y252765D01*
X741381Y250788D01*
X741102Y248666D01*
X741381Y246544D01*
X742200Y244567D01*
X743503Y242869D01*
X745201Y241566D01*
X747178Y240747D01*
X749300Y240468D01*
X751422Y240747D01*
X753399Y241566D01*
X755097Y242869D01*
X756400Y244567D01*
X756810Y245558D01*
X773938D01*
X775127Y245795D01*
X776135Y246469D01*
X776732Y247065D01*
X895439Y128358D01*
X896447Y127685D01*
X897636Y127448D01*
X1003046D01*
X1004235Y127685D01*
X1005244Y128358D01*
X1023892Y147007D01*
X1026432Y145955D01*
Y119512D01*
X1050988D01*
Y146752D01*
X1050988Y147068D01*
X1051750Y149292D01*
X1070670D01*
X1071432Y147068D01*
X1071432Y146752D01*
Y119512D01*
X1095988D01*
Y146752D01*
X1095988Y147068D01*
X1096750Y149292D01*
X1209294D01*
X1210483Y149529D01*
X1211491Y150203D01*
X1253536Y192246D01*
X1254209Y193255D01*
X1254446Y194444D01*
Y244000D01*
X1256650Y244810D01*
X1256986Y244810D01*
X1274206D01*
Y248980D01*
X1277301D01*
X1277321Y248830D01*
X1278140Y246853D01*
X1279443Y245155D01*
X1281141Y243852D01*
X1283118Y243033D01*
X1285240Y242754D01*
X1287362Y243033D01*
X1289339Y243852D01*
X1291037Y245155D01*
X1292340Y246853D01*
X1293159Y248830D01*
X1293438Y250952D01*
X1293159Y253074D01*
X1292340Y255051D01*
X1291037Y256749D01*
X1289339Y258052D01*
X1287362Y258871D01*
X1285240Y259150D01*
X1283118Y258871D01*
X1281141Y258052D01*
X1279443Y256749D01*
X1278440Y255442D01*
X1275860Y255338D01*
X1274206Y256992D01*
X1274206Y259366D01*
X1274206Y261906D01*
Y274366D01*
X1262545D01*
X1241927Y294984D01*
X1242496Y298008D01*
X1243840Y299039D01*
X1245551Y301268D01*
X1246625Y303863D01*
X1246992Y306648D01*
X1246625Y309433D01*
X1245551Y312028D01*
X1243840Y314256D01*
X1241612Y315966D01*
X1239017Y317041D01*
X1236232Y317408D01*
X1233447Y317041D01*
X1230852Y315966D01*
X1228624Y314256D01*
X1226914Y312028D01*
X1225839Y309433D01*
X1225472Y306648D01*
X1225839Y303863D01*
X1226914Y301268D01*
X1228624Y299039D01*
X1230852Y297330D01*
X1233124Y296388D01*
Y296284D01*
X1233361Y295095D01*
X1234035Y294086D01*
X1256650Y271471D01*
Y269213D01*
X1249140Y261704D01*
X1248467Y260695D01*
X1248230Y259506D01*
Y195731D01*
X1208007Y155508D01*
X1027857D01*
X1026902Y157813D01*
X1028465Y159706D01*
X1091850D01*
X1093039Y159943D01*
X1094047Y160616D01*
X1147738Y214307D01*
X1148411Y215315D01*
X1148648Y216504D01*
Y545045D01*
X1151188Y546097D01*
X1160224Y537061D01*
Y508608D01*
X1157952Y507667D01*
X1155723Y505956D01*
X1154014Y503728D01*
X1152939Y501133D01*
X1152572Y498348D01*
X1152939Y495563D01*
X1154014Y492968D01*
X1155723Y490740D01*
X1157952Y489030D01*
X1160547Y487955D01*
X1163332Y487588D01*
X1166117Y487955D01*
X1168712Y489030D01*
X1170940Y490740D01*
X1172651Y492968D01*
X1173725Y495563D01*
X1174092Y498348D01*
X1173725Y501133D01*
X1172651Y503728D01*
X1170940Y505956D01*
X1168712Y507667D01*
X1166440Y508608D01*
Y538348D01*
X1166203Y539537D01*
X1165529Y540546D01*
X1154826Y551249D01*
Y560292D01*
X1154826Y562388D01*
X1154826Y564928D01*
Y577388D01*
X1137270D01*
Y573338D01*
X1127650D01*
X1127240Y574329D01*
X1125937Y576027D01*
X1124239Y577330D01*
X1122262Y578149D01*
X1120140Y578428D01*
X1118018Y578149D01*
X1116041Y577330D01*
X1114343Y576027D01*
X1113040Y574329D01*
X1112221Y572352D01*
X1111942Y570230D01*
X1112221Y568108D01*
X1113040Y566131D01*
X1114343Y564433D01*
X1116041Y563130D01*
X1118018Y562311D01*
X1120140Y562032D01*
X1122262Y562311D01*
X1124239Y563130D01*
X1125937Y564433D01*
X1127240Y566131D01*
X1127650Y567122D01*
X1135474D01*
X1137270Y565326D01*
X1137270Y562832D01*
X1137270Y560292D01*
Y547832D01*
X1142432D01*
Y217791D01*
X1090563Y165922D01*
X1027176D01*
X1025987Y165685D01*
X1024978Y165012D01*
X999981Y140014D01*
X900945D01*
X879909Y161050D01*
X880881Y163396D01*
X953903D01*
X954408Y160856D01*
X952973Y160262D01*
X951275Y158959D01*
X949972Y157261D01*
X949153Y155284D01*
X948874Y153162D01*
X949153Y151040D01*
X949972Y149063D01*
X951275Y147365D01*
X952973Y146062D01*
X954950Y145243D01*
X957072Y144964D01*
X959194Y145243D01*
X961171Y146062D01*
X962869Y147365D01*
X964172Y149063D01*
X964582Y150054D01*
X973948D01*
Y144226D01*
X991504D01*
Y156686D01*
X991504Y158782D01*
X991504Y161322D01*
Y173782D01*
X985834D01*
Y208102D01*
X985932Y208188D01*
X988717Y208555D01*
X991312Y209629D01*
X993540Y211339D01*
X995250Y213568D01*
X996325Y216163D01*
X996692Y218948D01*
X996325Y221733D01*
X995250Y224328D01*
X993540Y226556D01*
X991312Y228267D01*
X988717Y229341D01*
X985932Y229708D01*
X983147Y229341D01*
X980552Y228267D01*
X978324Y226556D01*
X976613Y224328D01*
X975539Y221733D01*
X975172Y218948D01*
X975539Y216163D01*
X976613Y213568D01*
X978324Y211339D01*
X979618Y210346D01*
Y173782D01*
X973948D01*
Y169612D01*
X877453D01*
X758588Y288477D01*
X758534Y288888D01*
X757715Y290865D01*
X756412Y292563D01*
X754714Y293866D01*
X752737Y294685D01*
X750615Y294964D01*
X748493Y294685D01*
X747077Y294098D01*
X745344Y296013D01*
X746240Y297180D01*
X746650Y298171D01*
X756106D01*
X782409Y271868D01*
X783417Y271195D01*
X784606Y270958D01*
X811276D01*
X812465Y271195D01*
X813474Y271868D01*
X877616Y336011D01*
X878289Y337019D01*
X878526Y338208D01*
Y401432D01*
X882696D01*
Y407102D01*
X902954D01*
X903714Y405268D01*
X905424Y403040D01*
X907652Y401329D01*
X910247Y400255D01*
X913032Y399888D01*
X915817Y400255D01*
X918412Y401329D01*
X920640Y403040D01*
X922350Y405268D01*
X923425Y407863D01*
X923792Y410648D01*
X923425Y413433D01*
X922350Y416028D01*
X920640Y418256D01*
X918412Y419967D01*
X915817Y421041D01*
X913032Y421408D01*
X910247Y421041D01*
X907652Y419967D01*
X905424Y418256D01*
X903714Y416028D01*
X902639Y413433D01*
X902623Y413318D01*
X882696D01*
Y418988D01*
X870236D01*
X868140Y418988D01*
X865202Y418988D01*
X863406Y420784D01*
Y424544D01*
X864397Y424954D01*
X866095Y426257D01*
X867398Y427955D01*
X868217Y429932D01*
X868496Y432054D01*
X868217Y434176D01*
X867398Y436153D01*
X866095Y437851D01*
X864397Y439154D01*
X862420Y439973D01*
X860298Y440252D01*
X858176Y439973D01*
X856199Y439154D01*
X854501Y437851D01*
X853198Y436153D01*
X852379Y434176D01*
X852100Y432054D01*
X852379Y429932D01*
X853198Y427955D01*
X854501Y426257D01*
X856199Y424954D01*
X857190Y424544D01*
Y418988D01*
X853140D01*
Y401432D01*
X865600D01*
X867696Y401432D01*
X870514Y401432D01*
X872310Y399636D01*
Y339495D01*
X845414Y312599D01*
X843008Y313785D01*
X843096Y314452D01*
X842817Y316574D01*
X841998Y318551D01*
X840695Y320249D01*
X838997Y321552D01*
X837020Y322371D01*
X834898Y322650D01*
X832776Y322371D01*
X830799Y321552D01*
X829101Y320249D01*
X827798Y318551D01*
X826979Y316574D01*
X826741Y314766D01*
X770272D01*
X769862Y315757D01*
X768765Y317186D01*
X769006Y318292D01*
X769771Y319726D01*
X808990D01*
X810179Y319963D01*
X811188Y320636D01*
X812227Y321676D01*
X813218Y321265D01*
X815340Y320986D01*
X817462Y321265D01*
X819439Y322084D01*
X821137Y323387D01*
X822440Y325085D01*
X823259Y327062D01*
X823538Y329184D01*
X823259Y331306D01*
X822440Y333283D01*
X821137Y334981D01*
X819439Y336284D01*
X817462Y337103D01*
X815340Y337382D01*
X813218Y337103D01*
X811241Y336284D01*
X809543Y334981D01*
X808240Y333283D01*
X807421Y331306D01*
X807142Y329184D01*
X807234Y328482D01*
X805485Y326113D01*
X805136Y325942D01*
X767396D01*
X766534Y328482D01*
X767177Y328975D01*
X768480Y330673D01*
X768890Y331664D01*
X774954D01*
X776143Y331901D01*
X777151Y332575D01*
X804181Y359604D01*
X811386D01*
X811796Y358613D01*
X813099Y356915D01*
X814797Y355612D01*
X816774Y354793D01*
X818896Y354514D01*
X821018Y354793D01*
X822995Y355612D01*
X824693Y356915D01*
X825996Y358613D01*
X826815Y360590D01*
X827094Y362712D01*
X826815Y364834D01*
X825996Y366811D01*
X824693Y368509D01*
X822995Y369812D01*
X821018Y370631D01*
X818896Y370910D01*
X816774Y370631D01*
X814797Y369812D01*
X813099Y368509D01*
X811796Y366811D01*
X811386Y365820D01*
X805353D01*
X804301Y368360D01*
X816291Y380350D01*
X817282Y379939D01*
X819404Y379660D01*
X821526Y379939D01*
X823503Y380758D01*
X825201Y382061D01*
X826504Y383759D01*
X827323Y385736D01*
X827602Y387858D01*
X827323Y389980D01*
X826504Y391957D01*
X825201Y393655D01*
X823503Y394958D01*
X821526Y395777D01*
X819404Y396056D01*
X817282Y395777D01*
X815305Y394958D01*
X813607Y393655D01*
X812304Y391957D01*
X811894Y390966D01*
X794802D01*
X793940Y393506D01*
X793994Y393548D01*
X795419Y395405D01*
X796315Y397567D01*
X796453Y398618D01*
X778855D01*
X778993Y397567D01*
X779889Y395405D01*
X781314Y393548D01*
X782187Y392877D01*
X782376Y390463D01*
X782329Y390190D01*
X782164Y389811D01*
X775488Y383134D01*
X765038D01*
Y392882D01*
X762368D01*
Y396098D01*
X766183D01*
Y413252D01*
X766183Y413654D01*
X766183Y413654D01*
X765856Y415656D01*
X765856D01*
Y428358D01*
X768203Y429330D01*
X771594Y425938D01*
X771443Y423627D01*
X770140Y421929D01*
X769321Y419952D01*
X769042Y417830D01*
X769321Y415708D01*
X770140Y413731D01*
X771443Y412033D01*
X773141Y410730D01*
X775118Y409911D01*
X777240Y409632D01*
X779362Y409911D01*
X781339Y410730D01*
X783037Y412033D01*
X784340Y413731D01*
X785159Y415708D01*
X785438Y417830D01*
X785159Y419952D01*
X784340Y421929D01*
X783037Y423627D01*
X781748Y424616D01*
X781749Y424992D01*
X782828Y427412D01*
X784950Y427691D01*
X786927Y428510D01*
X788625Y429813D01*
X789928Y431511D01*
X790747Y433488D01*
X791026Y435610D01*
X790747Y437732D01*
X789928Y439709D01*
X788625Y441407D01*
X786927Y442710D01*
X784950Y443529D01*
X782828Y443808D01*
X780706Y443529D01*
X778729Y442710D01*
X777031Y441407D01*
X774719Y441255D01*
X770992Y444983D01*
X772178Y447389D01*
X773430Y447224D01*
X775552Y447503D01*
X777529Y448322D01*
X779227Y449625D01*
X780530Y451323D01*
X781349Y453300D01*
X781628Y455422D01*
X781349Y457544D01*
X780530Y459521D01*
X779227Y461219D01*
X777529Y462522D01*
X775552Y463341D01*
X773430Y463620D01*
X771308Y463341D01*
X769331Y462522D01*
X767633Y461219D01*
X766330Y459521D01*
X765920Y458530D01*
X761380D01*
Y463550D01*
X751840D01*
Y466090D01*
X761380D01*
Y472860D01*
X760618D01*
Y487098D01*
X754948D01*
Y519938D01*
X754711Y521127D01*
X754037Y522136D01*
X738774Y537399D01*
X739185Y538390D01*
X739464Y540512D01*
X739185Y542634D01*
X738366Y544611D01*
X737063Y546309D01*
X735365Y547612D01*
X733388Y548431D01*
X731266Y548710D01*
X729144Y548431D01*
X727167Y547612D01*
X725469Y546309D01*
X724166Y544611D01*
X723347Y542634D01*
X723068Y540512D01*
X723347Y538390D01*
X724166Y536413D01*
X725469Y534715D01*
X727167Y533412D01*
X729144Y532593D01*
X731266Y532314D01*
X733388Y532593D01*
X734379Y533004D01*
X748732Y518651D01*
Y487098D01*
X743062D01*
Y487098D01*
X741822Y486456D01*
X726342D01*
X725480Y488996D01*
X726141Y489503D01*
X727444Y491201D01*
X728263Y493178D01*
X728542Y495300D01*
X728263Y497422D01*
X727444Y499399D01*
X726141Y501097D01*
X724443Y502400D01*
X722466Y503219D01*
X720344Y503498D01*
X718222Y503219D01*
X716245Y502400D01*
X714547Y501097D01*
X713244Y499399D01*
X712425Y497422D01*
X712146Y495300D01*
X712425Y493178D01*
X713244Y491201D01*
X714547Y489503D01*
X716245Y488200D01*
X717236Y487790D01*
Y483125D01*
X714238Y480127D01*
X712185Y478952D01*
X696691D01*
Y472348D01*
Y459714D01*
X695929D01*
Y456920D01*
X704438D01*
Y454380D01*
X695929D01*
Y451586D01*
X696691D01*
Y447348D01*
Y437348D01*
Y427348D01*
Y417348D01*
Y407348D01*
Y397348D01*
X703345D01*
X705298Y395395D01*
Y390542D01*
X704307Y390132D01*
X702609Y388829D01*
X701306Y387131D01*
X700487Y385154D01*
X700208Y383032D01*
X700487Y380910D01*
X701306Y378933D01*
X702609Y377235D01*
X702939Y376982D01*
X702077Y374442D01*
X697258D01*
Y370272D01*
X692421D01*
X687740Y374953D01*
Y388397D01*
X683502D01*
Y389159D01*
X680708D01*
Y380650D01*
X678168D01*
Y389159D01*
X675374D01*
Y388397D01*
X606136D01*
Y378012D01*
X588548D01*
X586983Y379909D01*
X587293Y380656D01*
X587572Y382778D01*
X587293Y384900D01*
X586474Y386877D01*
X585171Y388575D01*
X583473Y389878D01*
X581496Y390697D01*
X579374Y390976D01*
X577252Y390697D01*
X575275Y389878D01*
X573577Y388575D01*
X572274Y386877D01*
X571455Y384900D01*
X571176Y382778D01*
X571455Y380656D01*
X572274Y378679D01*
X573577Y376981D01*
X574551Y376234D01*
X573689Y373694D01*
X566928D01*
X565739Y373457D01*
X564730Y372784D01*
X550655Y358708D01*
X479298D01*
X478109Y358471D01*
X477100Y357798D01*
X443802Y324499D01*
X441396Y325685D01*
X441522Y326644D01*
X441243Y328766D01*
X440424Y330743D01*
X439121Y332441D01*
X437423Y333744D01*
X435446Y334563D01*
X433324Y334842D01*
X431487Y334600D01*
X430948Y335145D01*
X430186Y336891D01*
X530837Y437542D01*
X581691D01*
Y432348D01*
Y422348D01*
Y413758D01*
X569807D01*
X564022Y419543D01*
X564433Y420534D01*
X564712Y422656D01*
X564433Y424778D01*
X563614Y426755D01*
X562311Y428453D01*
X560613Y429756D01*
X558636Y430575D01*
X556514Y430854D01*
X554392Y430575D01*
X552415Y429756D01*
X550717Y428453D01*
X549414Y426755D01*
X548595Y424778D01*
X548316Y422656D01*
X548595Y420534D01*
X549414Y418557D01*
X550717Y416859D01*
X552415Y415556D01*
X554392Y414737D01*
X556514Y414458D01*
X558636Y414737D01*
X559627Y415148D01*
X563671Y411104D01*
X562699Y408758D01*
X561218D01*
X560029Y408521D01*
X559021Y407848D01*
X552793Y401620D01*
X550418D01*
Y393580D01*
X549148D01*
Y392310D01*
X539608D01*
Y385540D01*
X540370D01*
Y382838D01*
X524146D01*
X523736Y383829D01*
X522433Y385527D01*
X520735Y386830D01*
X518758Y387649D01*
X516636Y387928D01*
X514514Y387649D01*
X512537Y386830D01*
X510839Y385527D01*
X509536Y383829D01*
X508717Y381852D01*
X508438Y379730D01*
X508717Y377608D01*
X509536Y375631D01*
X510839Y373933D01*
X512537Y372630D01*
X514514Y371811D01*
X516636Y371532D01*
X518758Y371811D01*
X520735Y372630D01*
X522433Y373933D01*
X523736Y375631D01*
X524146Y376622D01*
X540370D01*
Y371302D01*
X557926D01*
Y378109D01*
X577359Y397542D01*
X581691D01*
Y397348D01*
X597185D01*
Y401586D01*
X597947D01*
Y404380D01*
X589438D01*
Y406920D01*
X597947D01*
Y409714D01*
X597185D01*
Y417348D01*
Y427348D01*
Y437348D01*
Y447348D01*
Y457348D01*
Y467348D01*
Y478952D01*
X585022D01*
Y568943D01*
X594546Y578467D01*
X597917Y578246D01*
X597979Y578167D01*
X599969Y576639D01*
X602287Y575679D01*
X604774Y575352D01*
X607261Y575679D01*
X609579Y576639D01*
X611569Y578167D01*
X613097Y580157D01*
X614057Y582475D01*
X614384Y584962D01*
X614057Y587449D01*
X613097Y589767D01*
X612152Y590998D01*
X613124Y593404D01*
X613251Y593538D01*
X617203D01*
X621594Y589147D01*
X620891Y587449D01*
X620564Y584962D01*
X620891Y582475D01*
X621851Y580157D01*
X623379Y578167D01*
X625369Y576639D01*
X627687Y575679D01*
X630174Y575352D01*
X632661Y575679D01*
X634979Y576639D01*
X636969Y578167D01*
X638497Y580157D01*
X639457Y582475D01*
X639784Y584962D01*
X639457Y587449D01*
X638497Y589767D01*
X636969Y591757D01*
X634979Y593285D01*
X632661Y594245D01*
X630174Y594572D01*
X627687Y594245D01*
X625989Y593542D01*
X620798Y598733D01*
X620774Y599338D01*
X621166Y601578D01*
X622279Y602039D01*
X624269Y603567D01*
X625797Y605557D01*
X626757Y607875D01*
X627084Y610362D01*
X626757Y612849D01*
X625797Y615167D01*
X624269Y617157D01*
X622279Y618685D01*
X619961Y619645D01*
X617474Y619972D01*
D02*
G37*
G36*
X665786Y583692D02*
X656844D01*
Y574750D01*
X658260Y574937D01*
X660763Y575974D01*
X662913Y577623D01*
X664562Y579773D01*
X665599Y582276D01*
X665786Y583692D01*
D02*
G37*
G36*
X654304D02*
X645362D01*
X645549Y582276D01*
X646586Y579773D01*
X648235Y577623D01*
X650385Y575974D01*
X652888Y574937D01*
X654304Y574750D01*
Y583692D01*
D02*
G37*
G36*
X162814Y566367D02*
Y552704D01*
X176477D01*
X176313Y554372D01*
X175456Y557197D01*
X174065Y559800D01*
X172192Y562082D01*
X169910Y563955D01*
X167307Y565346D01*
X164482Y566203D01*
X162814Y566367D01*
D02*
G37*
G36*
X160274D02*
X158606Y566203D01*
X155781Y565346D01*
X153178Y563955D01*
X150896Y562082D01*
X149023Y559800D01*
X147632Y557197D01*
X146775Y554372D01*
X146611Y552704D01*
X160274D01*
Y566367D01*
D02*
G37*
G36*
X161544Y612781D02*
X157831Y612292D01*
X154371Y610859D01*
X151399Y608579D01*
X149119Y605607D01*
X147686Y602147D01*
X147197Y598434D01*
X147686Y594721D01*
X149119Y591261D01*
X151399Y588289D01*
X154371Y586009D01*
X157831Y584576D01*
X161544Y584087D01*
X165257Y584576D01*
X168717Y586009D01*
X171689Y588289D01*
X173969Y591261D01*
X175402Y594721D01*
X175482Y595326D01*
X207879D01*
X235824Y567381D01*
Y557816D01*
X235824Y555720D01*
X235824Y553180D01*
Y540720D01*
X253380D01*
Y544890D01*
X263133D01*
X263353Y543216D01*
X264172Y541239D01*
X265475Y539541D01*
X267173Y538238D01*
X269150Y537419D01*
X271272Y537140D01*
X273394Y537419D01*
X275371Y538238D01*
X277069Y539541D01*
X278372Y541239D01*
X279191Y543216D01*
X279470Y545338D01*
X279191Y547460D01*
X278372Y549437D01*
X277069Y551135D01*
X275371Y552438D01*
X274580Y552766D01*
X274580Y555515D01*
X275505Y555898D01*
X277203Y557201D01*
X278506Y558899D01*
X279325Y560876D01*
X279604Y562998D01*
X279325Y565120D01*
X278506Y567097D01*
X277203Y568795D01*
X275505Y570098D01*
X273528Y570917D01*
X271406Y571196D01*
X269284Y570917D01*
X267307Y570098D01*
X265609Y568795D01*
X264306Y567097D01*
X263896Y566106D01*
X253380D01*
Y570276D01*
X241719D01*
X211364Y600631D01*
X210355Y601305D01*
X209166Y601542D01*
X175482D01*
X175402Y602147D01*
X173969Y605607D01*
X171689Y608579D01*
X168717Y610859D01*
X165257Y612292D01*
X161544Y612781D01*
D02*
G37*
G36*
X176477Y550164D02*
X162814D01*
Y536501D01*
X164482Y536665D01*
X167307Y537522D01*
X169910Y538913D01*
X172192Y540786D01*
X174065Y543068D01*
X175456Y545671D01*
X176313Y548496D01*
X176477Y550164D01*
D02*
G37*
G36*
X160274D02*
X146611D01*
X146775Y548496D01*
X147632Y545671D01*
X149023Y543068D01*
X150896Y540786D01*
X153178Y538913D01*
X155781Y537522D01*
X158606Y536665D01*
X160274Y536501D01*
Y550164D01*
D02*
G37*
G36*
X626410Y537860D02*
X619640D01*
Y529590D01*
X626410D01*
Y537860D01*
D02*
G37*
G36*
X697276Y535574D02*
X690506D01*
Y527304D01*
X697276D01*
Y535574D01*
D02*
G37*
G36*
X271914Y522174D02*
X269792Y521895D01*
X267815Y521076D01*
X266117Y519773D01*
X264814Y518075D01*
X264404Y517084D01*
X253126D01*
Y521254D01*
X235570D01*
Y517084D01*
X171086D01*
X169897Y516847D01*
X169274Y516431D01*
X168717Y516859D01*
X165257Y518292D01*
X161544Y518781D01*
X157831Y518292D01*
X154371Y516859D01*
X151399Y514579D01*
X149119Y511607D01*
X147686Y508147D01*
X147197Y504434D01*
X147686Y500721D01*
X149119Y497261D01*
X151399Y494289D01*
X154371Y492009D01*
X157831Y490576D01*
X161544Y490087D01*
X165257Y490576D01*
X168717Y492009D01*
X171689Y494289D01*
X173969Y497261D01*
X175402Y500721D01*
X175891Y504434D01*
X175402Y508147D01*
X175150Y508756D01*
X176561Y510868D01*
X233774D01*
X235570Y509072D01*
X235570Y506698D01*
X235570Y504158D01*
Y491698D01*
X253126D01*
Y495868D01*
X263306D01*
X263582Y495554D01*
X263861Y493432D01*
X264680Y491455D01*
X265983Y489757D01*
X267681Y488454D01*
X269658Y487635D01*
X271780Y487356D01*
X273902Y487635D01*
X275879Y488454D01*
X277577Y489757D01*
X278880Y491455D01*
X279699Y493432D01*
X279978Y495554D01*
X279699Y497676D01*
X278880Y499653D01*
X277577Y501351D01*
X275879Y502654D01*
X273902Y503473D01*
X273883Y503475D01*
Y506037D01*
X274036Y506057D01*
X276013Y506876D01*
X277711Y508179D01*
X279014Y509877D01*
X279833Y511854D01*
X280112Y513976D01*
X279833Y516098D01*
X279014Y518075D01*
X277711Y519773D01*
X276013Y521076D01*
X274036Y521895D01*
X271914Y522174D01*
D02*
G37*
G36*
X1074492Y538742D02*
X1069762Y538370D01*
X1065149Y537262D01*
X1060766Y535447D01*
X1056721Y532968D01*
X1053113Y529887D01*
X1050032Y526279D01*
X1047553Y522234D01*
X1045738Y517851D01*
X1044630Y513238D01*
X1044258Y508508D01*
X1044630Y503778D01*
X1045738Y499165D01*
X1047553Y494782D01*
X1050032Y490737D01*
X1053113Y487129D01*
X1056721Y484048D01*
X1060766Y481569D01*
X1065149Y479754D01*
X1069762Y478646D01*
X1074492Y478274D01*
X1079222Y478646D01*
X1083835Y479754D01*
X1088218Y481569D01*
X1092263Y484048D01*
X1095871Y487129D01*
X1098952Y490737D01*
X1101431Y494782D01*
X1103246Y499165D01*
X1104354Y503778D01*
X1104726Y508508D01*
X1104354Y513238D01*
X1103246Y517851D01*
X1101431Y522234D01*
X1098952Y526279D01*
X1095871Y529887D01*
X1092263Y532968D01*
X1088218Y535447D01*
X1083835Y537262D01*
X1079222Y538370D01*
X1074492Y538742D01*
D02*
G37*
G36*
X177444Y484469D02*
X174394Y484067D01*
X171551Y482890D01*
X169111Y481017D01*
X167238Y478577D01*
X166061Y475734D01*
X165659Y472684D01*
X166061Y469634D01*
X167238Y466792D01*
X169111Y464351D01*
X171551Y462478D01*
X174394Y461301D01*
X177444Y460899D01*
X180494Y461301D01*
X183336Y462478D01*
X185777Y464351D01*
X187650Y466792D01*
X188827Y469634D01*
X189229Y472684D01*
X188827Y475734D01*
X187650Y478577D01*
X185777Y481017D01*
X183336Y482890D01*
X180494Y484067D01*
X177444Y484469D01*
D02*
G37*
G36*
X145644D02*
X142594Y484067D01*
X139752Y482890D01*
X137311Y481017D01*
X135438Y478577D01*
X134261Y475734D01*
X133859Y472684D01*
X134261Y469634D01*
X135438Y466792D01*
X137311Y464351D01*
X139752Y462478D01*
X142594Y461301D01*
X145644Y460899D01*
X148694Y461301D01*
X151537Y462478D01*
X153977Y464351D01*
X155850Y466792D01*
X157027Y469634D01*
X157429Y472684D01*
X157027Y475734D01*
X155850Y478577D01*
X153977Y481017D01*
X151537Y482890D01*
X148694Y484067D01*
X145644Y484469D01*
D02*
G37*
G36*
X843788Y642363D02*
X834850Y641924D01*
X825999Y640611D01*
X817319Y638436D01*
X808894Y635422D01*
X800805Y631596D01*
X793130Y626996D01*
X785942Y621665D01*
X779312Y615656D01*
X773303Y609026D01*
X767972Y601838D01*
X763372Y594163D01*
X759546Y586074D01*
X756532Y577649D01*
X754357Y568969D01*
X753044Y560117D01*
X752605Y551180D01*
X753044Y542243D01*
X754357Y533391D01*
X756532Y524711D01*
X759546Y516286D01*
X763372Y508197D01*
X767972Y500522D01*
X773303Y493334D01*
X779312Y486704D01*
X785942Y480695D01*
X793130Y475364D01*
X800805Y470764D01*
X808894Y466938D01*
X817319Y463924D01*
X825999Y461749D01*
X834850Y460436D01*
X843788Y459997D01*
X852726Y460436D01*
X861577Y461749D01*
X870257Y463924D01*
X878682Y466938D01*
X886771Y470764D01*
X894446Y475364D01*
X901634Y480695D01*
X908264Y486704D01*
X914273Y493334D01*
X919604Y500522D01*
X924204Y508197D01*
X928030Y516286D01*
X931044Y524711D01*
X933219Y533391D01*
X934532Y542243D01*
X934971Y551180D01*
X934532Y560117D01*
X933219Y568969D01*
X931044Y577649D01*
X928030Y586074D01*
X924204Y594163D01*
X919604Y601838D01*
X914273Y609026D01*
X908264Y615656D01*
X901634Y621665D01*
X894446Y626996D01*
X886771Y631596D01*
X878682Y635422D01*
X870257Y638436D01*
X861577Y640611D01*
X852726Y641924D01*
X843788Y642363D01*
D02*
G37*
G36*
X449834D02*
X440896Y641924D01*
X432045Y640611D01*
X423365Y638436D01*
X414940Y635422D01*
X406851Y631596D01*
X399176Y626996D01*
X391988Y621665D01*
X385358Y615656D01*
X379349Y609026D01*
X374018Y601838D01*
X369418Y594163D01*
X365592Y586074D01*
X362578Y577649D01*
X360403Y568969D01*
X359090Y560117D01*
X358651Y551180D01*
X359090Y542243D01*
X360403Y533391D01*
X362578Y524711D01*
X365592Y516286D01*
X369418Y508197D01*
X374018Y500522D01*
X379349Y493334D01*
X385358Y486704D01*
X391988Y480695D01*
X399176Y475364D01*
X406851Y470764D01*
X414940Y466938D01*
X423365Y463924D01*
X432045Y461749D01*
X440896Y460436D01*
X449834Y459997D01*
X458772Y460436D01*
X467623Y461749D01*
X476303Y463924D01*
X484728Y466938D01*
X492817Y470764D01*
X500492Y475364D01*
X507680Y480695D01*
X514310Y486704D01*
X520319Y493334D01*
X525650Y500522D01*
X530250Y508197D01*
X534076Y516286D01*
X537090Y524711D01*
X539265Y533391D01*
X540578Y542243D01*
X541017Y551180D01*
X540578Y560117D01*
X539265Y568969D01*
X537090Y577649D01*
X534076Y586074D01*
X530250Y594163D01*
X525650Y601838D01*
X520319Y609026D01*
X514310Y615656D01*
X507680Y621665D01*
X500492Y626996D01*
X492817Y631596D01*
X484728Y635422D01*
X476303Y638436D01*
X467623Y640611D01*
X458772Y641924D01*
X449834Y642363D01*
D02*
G37*
G36*
X1074632Y462008D02*
X1071847Y461641D01*
X1069252Y460566D01*
X1067023Y458857D01*
X1065313Y456628D01*
X1064239Y454033D01*
X1063872Y451248D01*
X1064239Y448463D01*
X1065313Y445868D01*
X1067023Y443639D01*
X1069252Y441930D01*
X1071847Y440855D01*
X1074632Y440488D01*
X1077417Y440855D01*
X1080012Y441930D01*
X1082241Y443639D01*
X1083951Y445868D01*
X1085025Y448463D01*
X1085392Y451248D01*
X1085025Y454033D01*
X1083951Y456628D01*
X1082241Y458857D01*
X1080012Y460566D01*
X1077417Y461641D01*
X1074632Y462008D01*
D02*
G37*
G36*
X788924Y408687D02*
Y401158D01*
X796453D01*
X796315Y402209D01*
X795419Y404371D01*
X793994Y406228D01*
X792137Y407653D01*
X789975Y408549D01*
X788924Y408687D01*
D02*
G37*
G36*
X786384D02*
X785333Y408549D01*
X783171Y407653D01*
X781314Y406228D01*
X779889Y404371D01*
X778993Y402209D01*
X778855Y401158D01*
X786384D01*
Y408687D01*
D02*
G37*
G36*
X547878Y401620D02*
X539608D01*
Y394850D01*
X547878D01*
Y401620D01*
D02*
G37*
G36*
X222250Y389813D02*
Y380746D01*
X231317D01*
X231126Y382195D01*
X230077Y384728D01*
X228407Y386903D01*
X226232Y388573D01*
X223699Y389622D01*
X222250Y389813D01*
D02*
G37*
G36*
X219710D02*
X218261Y389622D01*
X215728Y388573D01*
X213553Y386903D01*
X211883Y384728D01*
X210834Y382195D01*
X210643Y380746D01*
X219710D01*
Y389813D01*
D02*
G37*
G36*
X231317Y378206D02*
X222250D01*
Y369139D01*
X223699Y369330D01*
X226232Y370379D01*
X228407Y372049D01*
X230077Y374224D01*
X231126Y376757D01*
X231317Y378206D01*
D02*
G37*
G36*
X219710D02*
X210643D01*
X210834Y376757D01*
X211883Y374224D01*
X213553Y372049D01*
X215728Y370379D01*
X218261Y369330D01*
X219710Y369139D01*
Y378206D01*
D02*
G37*
G36*
X1167232Y369408D02*
X1164447Y369041D01*
X1161852Y367966D01*
X1159623Y366256D01*
X1157914Y364028D01*
X1156839Y361433D01*
X1156472Y358648D01*
X1156839Y355863D01*
X1157914Y353268D01*
X1159623Y351040D01*
X1161852Y349329D01*
X1164447Y348255D01*
X1167232Y347888D01*
X1170017Y348255D01*
X1172612Y349329D01*
X1174840Y351040D01*
X1176551Y353268D01*
X1177625Y355863D01*
X1177992Y358648D01*
X1177625Y361433D01*
X1176551Y364028D01*
X1174840Y366256D01*
X1172612Y367966D01*
X1170017Y369041D01*
X1167232Y369408D01*
D02*
G37*
G36*
X982032D02*
X979247Y369041D01*
X976652Y367966D01*
X974424Y366256D01*
X972713Y364028D01*
X971639Y361433D01*
X971272Y358648D01*
X971639Y355863D01*
X972713Y353268D01*
X974424Y351040D01*
X976652Y349329D01*
X979247Y348255D01*
X982032Y347888D01*
X984817Y348255D01*
X987412Y349329D01*
X989641Y351040D01*
X991350Y353268D01*
X992425Y355863D01*
X992792Y358648D01*
X992425Y361433D01*
X991350Y364028D01*
X989641Y366256D01*
X987412Y367966D01*
X984817Y369041D01*
X982032Y369408D01*
D02*
G37*
G36*
X1119632Y376691D02*
X1116112Y376344D01*
X1112727Y375317D01*
X1109608Y373650D01*
X1106874Y371406D01*
X1104630Y368672D01*
X1102963Y365553D01*
X1101936Y362168D01*
X1101589Y358648D01*
X1101936Y355128D01*
X1102963Y351743D01*
X1104630Y348624D01*
X1106874Y345890D01*
X1109608Y343646D01*
X1112727Y341979D01*
X1116112Y340952D01*
X1119632Y340605D01*
X1123152Y340952D01*
X1126537Y341979D01*
X1129656Y343646D01*
X1132390Y345890D01*
X1134634Y348624D01*
X1136301Y351743D01*
X1137328Y355128D01*
X1137675Y358648D01*
X1137328Y362168D01*
X1136301Y365553D01*
X1134634Y368672D01*
X1132390Y371406D01*
X1129656Y373650D01*
X1126537Y375317D01*
X1123152Y376344D01*
X1119632Y376691D01*
D02*
G37*
G36*
X1029632Y377628D02*
X1025929Y377264D01*
X1022368Y376184D01*
X1019087Y374430D01*
X1016211Y372069D01*
X1013850Y369193D01*
X1012096Y365911D01*
X1011016Y362351D01*
X1010652Y358648D01*
X1011016Y354945D01*
X1012096Y351385D01*
X1013850Y348103D01*
X1016211Y345227D01*
X1019087Y342866D01*
X1022368Y341112D01*
X1025929Y340032D01*
X1029632Y339668D01*
X1033335Y340032D01*
X1036896Y341112D01*
X1040177Y342866D01*
X1043053Y345227D01*
X1045414Y348103D01*
X1047168Y351385D01*
X1048248Y354945D01*
X1048612Y358648D01*
X1048248Y362351D01*
X1047168Y365911D01*
X1045414Y369193D01*
X1043053Y372069D01*
X1040177Y374430D01*
X1036896Y376184D01*
X1033335Y377264D01*
X1029632Y377628D01*
D02*
G37*
G36*
X1074632Y353708D02*
X1071847Y353341D01*
X1069252Y352267D01*
X1067023Y350556D01*
X1065313Y348328D01*
X1064239Y345733D01*
X1063872Y342948D01*
X1064239Y340163D01*
X1065180Y337891D01*
X1001923Y274634D01*
X890666D01*
Y279446D01*
X873110D01*
Y277877D01*
X870570Y276825D01*
X867978Y279417D01*
Y289670D01*
X868969Y290080D01*
X870667Y291383D01*
X871970Y293081D01*
X872789Y295058D01*
X873068Y297180D01*
X872789Y299302D01*
X871970Y301279D01*
X870667Y302977D01*
X868969Y304280D01*
X866992Y305099D01*
X864870Y305378D01*
X862748Y305099D01*
X860771Y304280D01*
X859073Y302977D01*
X857770Y301279D01*
X856951Y299302D01*
X856672Y297180D01*
X856951Y295058D01*
X857770Y293081D01*
X859073Y291383D01*
X860771Y290080D01*
X861762Y289670D01*
Y278130D01*
X861999Y276941D01*
X862673Y275933D01*
X869277Y269328D01*
X870285Y268655D01*
X871474Y268418D01*
X873110Y266782D01*
X873110Y264890D01*
X873110Y262350D01*
Y249890D01*
X878780D01*
Y243687D01*
X877281Y243066D01*
X875583Y241763D01*
X874280Y240065D01*
X873461Y238088D01*
X873182Y235966D01*
X873461Y233844D01*
X874280Y231867D01*
X875583Y230169D01*
X877281Y228866D01*
X879258Y228047D01*
X881380Y227768D01*
X883502Y228047D01*
X885479Y228866D01*
X887177Y230169D01*
X888480Y231867D01*
X889299Y233844D01*
X889578Y235966D01*
X889299Y238088D01*
X888480Y240065D01*
X887177Y241763D01*
X885479Y243066D01*
X884996Y243266D01*
Y249890D01*
X890666D01*
Y262350D01*
X890666Y264446D01*
X890666Y266622D01*
X892462Y268418D01*
X1003210D01*
X1004399Y268655D01*
X1005407Y269328D01*
X1069575Y333496D01*
X1071847Y332555D01*
X1074632Y332188D01*
X1077417Y332555D01*
X1080012Y333629D01*
X1082241Y335340D01*
X1083951Y337568D01*
X1085025Y340163D01*
X1085392Y342948D01*
X1085025Y345733D01*
X1083951Y348328D01*
X1082241Y350556D01*
X1080012Y352267D01*
X1077417Y353341D01*
X1074632Y353708D01*
D02*
G37*
G36*
X1224352Y388882D02*
X1219622Y388510D01*
X1215009Y387402D01*
X1210626Y385587D01*
X1206581Y383108D01*
X1202973Y380027D01*
X1199892Y376419D01*
X1197413Y372374D01*
X1195598Y367991D01*
X1194490Y363378D01*
X1194118Y358648D01*
X1194490Y353918D01*
X1195598Y349305D01*
X1197413Y344922D01*
X1199892Y340877D01*
X1202973Y337269D01*
X1206581Y334188D01*
X1210626Y331709D01*
X1215009Y329894D01*
X1219622Y328786D01*
X1224352Y328414D01*
X1229082Y328786D01*
X1233695Y329894D01*
X1238078Y331709D01*
X1242123Y334188D01*
X1245731Y337269D01*
X1248812Y340877D01*
X1251291Y344922D01*
X1253106Y349305D01*
X1254214Y353918D01*
X1254586Y358648D01*
X1254214Y363378D01*
X1253106Y367991D01*
X1251291Y372374D01*
X1248812Y376419D01*
X1245731Y380027D01*
X1242123Y383108D01*
X1238078Y385587D01*
X1233695Y387402D01*
X1229082Y388510D01*
X1224352Y388882D01*
D02*
G37*
G36*
X924632D02*
X919902Y388510D01*
X915289Y387402D01*
X910906Y385587D01*
X906861Y383108D01*
X903253Y380027D01*
X900172Y376419D01*
X897693Y372374D01*
X895878Y367991D01*
X894770Y363378D01*
X894398Y358648D01*
X894770Y353918D01*
X895878Y349305D01*
X897693Y344922D01*
X900172Y340877D01*
X903253Y337269D01*
X906861Y334188D01*
X910906Y331709D01*
X915289Y329894D01*
X919902Y328786D01*
X924632Y328414D01*
X929362Y328786D01*
X933975Y329894D01*
X938358Y331709D01*
X942403Y334188D01*
X946011Y337269D01*
X949092Y340877D01*
X951571Y344922D01*
X953386Y349305D01*
X954494Y353918D01*
X954866Y358648D01*
X954494Y363378D01*
X953386Y367991D01*
X951571Y372374D01*
X949092Y376419D01*
X946011Y380027D01*
X942403Y383108D01*
X938358Y385587D01*
X933975Y387402D01*
X929362Y388510D01*
X924632Y388882D01*
D02*
G37*
G36*
X1165332Y232708D02*
X1162547Y232341D01*
X1159952Y231266D01*
X1157723Y229557D01*
X1156013Y227328D01*
X1154939Y224733D01*
X1154572Y221948D01*
X1154939Y219163D01*
X1156013Y216568D01*
X1157723Y214340D01*
X1159952Y212630D01*
X1162547Y211555D01*
X1165332Y211188D01*
X1168117Y211555D01*
X1170712Y212630D01*
X1172941Y214340D01*
X1174650Y216568D01*
X1175725Y219163D01*
X1176092Y221948D01*
X1175725Y224733D01*
X1174650Y227328D01*
X1172941Y229557D01*
X1170712Y231266D01*
X1168117Y232341D01*
X1165332Y232708D01*
D02*
G37*
G36*
X919869Y238822D02*
X915727Y238496D01*
X911687Y237526D01*
X907849Y235936D01*
X904306Y233765D01*
X901146Y231067D01*
X898448Y227908D01*
X896277Y224365D01*
X894687Y220526D01*
X893717Y216486D01*
X893391Y212344D01*
X893717Y208202D01*
X894687Y204162D01*
X896277Y200323D01*
X898448Y196780D01*
X901146Y193621D01*
X904306Y190923D01*
X907849Y188752D01*
X911687Y187162D01*
X915727Y186192D01*
X919869Y185866D01*
X924012Y186192D01*
X928052Y187162D01*
X931890Y188752D01*
X935433Y190923D01*
X938592Y193621D01*
X941291Y196780D01*
X943462Y200323D01*
X945052Y204162D01*
X946022Y208202D01*
X946348Y212344D01*
X946022Y216486D01*
X945052Y220526D01*
X943462Y224365D01*
X941291Y227908D01*
X938592Y231067D01*
X935433Y233765D01*
X931890Y235936D01*
X928052Y237526D01*
X924012Y238496D01*
X919869Y238822D01*
D02*
G37*
G36*
X1215898Y238060D02*
X1211756Y237734D01*
X1207716Y236764D01*
X1203877Y235174D01*
X1200334Y233003D01*
X1197175Y230305D01*
X1194477Y227146D01*
X1192306Y223603D01*
X1190716Y219764D01*
X1189746Y215724D01*
X1189420Y211582D01*
X1189746Y207440D01*
X1190716Y203400D01*
X1192306Y199561D01*
X1194477Y196019D01*
X1197175Y192859D01*
X1200334Y190161D01*
X1203877Y187990D01*
X1207716Y186400D01*
X1211756Y185430D01*
X1215898Y185104D01*
X1220040Y185430D01*
X1224080Y186400D01*
X1227919Y187990D01*
X1231461Y190161D01*
X1234621Y192859D01*
X1237319Y196019D01*
X1239490Y199561D01*
X1241080Y203400D01*
X1242050Y207440D01*
X1242376Y211582D01*
X1242050Y215724D01*
X1241080Y219764D01*
X1239490Y223603D01*
X1237319Y227146D01*
X1234621Y230305D01*
X1231461Y233003D01*
X1227919Y235174D01*
X1224080Y236764D01*
X1220040Y237734D01*
X1215898Y238060D01*
D02*
G37*
G36*
X1074492Y239022D02*
X1069762Y238650D01*
X1065149Y237542D01*
X1060766Y235727D01*
X1056721Y233248D01*
X1053113Y230167D01*
X1050032Y226559D01*
X1047553Y222514D01*
X1045738Y218131D01*
X1044630Y213518D01*
X1044258Y208788D01*
X1044630Y204058D01*
X1045738Y199445D01*
X1047553Y195062D01*
X1050032Y191017D01*
X1053113Y187409D01*
X1056721Y184328D01*
X1060766Y181849D01*
X1065149Y180034D01*
X1069762Y178926D01*
X1074492Y178554D01*
X1079222Y178926D01*
X1083835Y180034D01*
X1088218Y181849D01*
X1092263Y184328D01*
X1095871Y187409D01*
X1098952Y191017D01*
X1101431Y195062D01*
X1103246Y199445D01*
X1104354Y204058D01*
X1104726Y208788D01*
X1104354Y213518D01*
X1103246Y218131D01*
X1101431Y222514D01*
X1098952Y226559D01*
X1095871Y230167D01*
X1092263Y233248D01*
X1088218Y235727D01*
X1083835Y237542D01*
X1079222Y238650D01*
X1074492Y239022D01*
D02*
G37*
G36*
X222250Y135813D02*
Y126746D01*
X231317D01*
X231126Y128195D01*
X230077Y130728D01*
X228407Y132903D01*
X226232Y134573D01*
X223699Y135622D01*
X222250Y135813D01*
D02*
G37*
G36*
X219710D02*
X218261Y135622D01*
X215728Y134573D01*
X213553Y132903D01*
X211883Y130728D01*
X210834Y128195D01*
X210643Y126746D01*
X219710D01*
Y135813D01*
D02*
G37*
G36*
X231317Y124206D02*
X222250D01*
Y115139D01*
X223699Y115330D01*
X226232Y116379D01*
X228407Y118049D01*
X230077Y120224D01*
X231126Y122757D01*
X231317Y124206D01*
D02*
G37*
G36*
X219710D02*
X210643D01*
X210834Y122757D01*
X211883Y120224D01*
X213553Y118049D01*
X215728Y116379D01*
X218261Y115330D01*
X219710Y115139D01*
Y124206D01*
D02*
G37*
G36*
X530352Y140786D02*
X528230Y140507D01*
X526253Y139688D01*
X524555Y138385D01*
X523252Y136687D01*
X522433Y134710D01*
X522154Y132588D01*
X522433Y130466D01*
X523252Y128489D01*
X524555Y126791D01*
X526253Y125488D01*
X527244Y125078D01*
Y119172D01*
X521574D01*
Y104934D01*
X520812D01*
Y98164D01*
X530352D01*
X539892D01*
Y104934D01*
X539130D01*
Y119172D01*
X533460D01*
Y125078D01*
X534451Y125488D01*
X536149Y126791D01*
X537452Y128489D01*
X538271Y130466D01*
X538550Y132588D01*
X538271Y134710D01*
X537452Y136687D01*
X536149Y138385D01*
X534451Y139688D01*
X532474Y140507D01*
X530352Y140786D01*
D02*
G37*
G36*
X502158D02*
X500036Y140507D01*
X498059Y139688D01*
X496361Y138385D01*
X495058Y136687D01*
X494239Y134710D01*
X493960Y132588D01*
X494239Y130466D01*
X495058Y128489D01*
X496361Y126791D01*
X498059Y125488D01*
X499050Y125078D01*
Y118664D01*
X493380D01*
Y104426D01*
X492618D01*
Y97656D01*
X502158D01*
X511698D01*
Y104426D01*
X510936D01*
Y118664D01*
X505266D01*
Y125078D01*
X506257Y125488D01*
X507955Y126791D01*
X509258Y128489D01*
X510077Y130466D01*
X510356Y132588D01*
X510077Y134710D01*
X509258Y136687D01*
X507955Y138385D01*
X506257Y139688D01*
X504280Y140507D01*
X502158Y140786D01*
D02*
G37*
G36*
X881126Y128848D02*
X879004Y128569D01*
X877027Y127750D01*
X875329Y126447D01*
X874026Y124749D01*
X873207Y122772D01*
X872928Y120650D01*
X873207Y118528D01*
X874026Y116551D01*
X875329Y114853D01*
X877027Y113550D01*
X879004Y112731D01*
X881126Y112452D01*
X883248Y112731D01*
X885225Y113550D01*
X886923Y114853D01*
X888226Y116551D01*
X888636Y117542D01*
X1002775D01*
X1006068Y114249D01*
X1005096Y111902D01*
X1001998Y111902D01*
X989538D01*
Y94346D01*
X989538D01*
X989044Y92090D01*
X986504Y92090D01*
X976939D01*
X975899Y93130D01*
X974891Y93803D01*
X973702Y94040D01*
X948342D01*
X947153Y93803D01*
X946144Y93130D01*
X937655Y84640D01*
X931994D01*
Y83720D01*
X887011D01*
X884570Y86161D01*
X884981Y87152D01*
X885260Y89274D01*
X884981Y91396D01*
X884162Y93373D01*
X882859Y95071D01*
X881161Y96374D01*
X879184Y97193D01*
X877062Y97472D01*
X874940Y97193D01*
X872963Y96374D01*
X871265Y95071D01*
X869962Y93373D01*
X869143Y91396D01*
X868864Y89274D01*
X869143Y87152D01*
X869962Y85175D01*
X871265Y83477D01*
X872963Y82174D01*
X874940Y81355D01*
X877062Y81076D01*
X879184Y81355D01*
X880175Y81766D01*
X883527Y78415D01*
X884535Y77741D01*
X885724Y77504D01*
X930175D01*
X931232Y75402D01*
X931232Y74360D01*
Y71882D01*
X938022D01*
Y69342D01*
X931232D01*
Y65822D01*
X931232D01*
X931994Y64640D01*
Y56584D01*
X943430D01*
Y51071D01*
X935427Y43068D01*
X924592D01*
Y43830D01*
X917822D01*
Y34290D01*
Y24750D01*
X924592D01*
Y25512D01*
X938830D01*
Y37681D01*
X946073Y44924D01*
X948226Y43485D01*
X948137Y43270D01*
X947858Y41148D01*
X948137Y39026D01*
X948956Y37049D01*
X950259Y35351D01*
X951957Y34048D01*
X953934Y33229D01*
X956056Y32950D01*
X958178Y33229D01*
X960155Y34048D01*
X961853Y35351D01*
X963156Y37049D01*
X963975Y39026D01*
X964254Y41148D01*
X963975Y43270D01*
X963156Y45247D01*
X961853Y46945D01*
X961949Y50043D01*
X962306Y50486D01*
X973282D01*
Y44816D01*
X987838D01*
Y44816D01*
X988282D01*
Y44816D01*
X1002838D01*
Y62372D01*
X998668D01*
Y74534D01*
X1003600D01*
Y80204D01*
X1006932D01*
X1007548Y79502D01*
X1007827Y77380D01*
X1008646Y75403D01*
X1009949Y73705D01*
X1011647Y72402D01*
X1013624Y71583D01*
X1015746Y71304D01*
X1017868Y71583D01*
X1019845Y72402D01*
X1021543Y73705D01*
X1022846Y75403D01*
X1023665Y77380D01*
X1023944Y79502D01*
X1023665Y81624D01*
X1022846Y83601D01*
X1021543Y85299D01*
X1019845Y86602D01*
X1017868Y87421D01*
X1015746Y87700D01*
X1013624Y87421D01*
X1011647Y86602D01*
X1011410Y86420D01*
X1003600D01*
Y92090D01*
X1003600D01*
X1004094Y94346D01*
X1006634Y94346D01*
X1019094D01*
X1019094Y94346D01*
Y94346D01*
X1020863Y92742D01*
X1071432Y42173D01*
Y20512D01*
X1095988D01*
Y48068D01*
X1074327D01*
X1019094Y103301D01*
Y111902D01*
X1014924D01*
Y112896D01*
X1014687Y114085D01*
X1014014Y115093D01*
X1006260Y122847D01*
X1005251Y123521D01*
X1004062Y123758D01*
X888636D01*
X888226Y124749D01*
X886923Y126447D01*
X885225Y127750D01*
X883248Y128569D01*
X881126Y128848D01*
D02*
G37*
G36*
X539892Y95624D02*
X531622D01*
Y88854D01*
X539892D01*
Y95624D01*
D02*
G37*
G36*
X529082D02*
X520812D01*
Y88854D01*
X529082D01*
Y95624D01*
D02*
G37*
G36*
X511698Y95116D02*
X503428D01*
Y88346D01*
X511698D01*
Y95116D01*
D02*
G37*
G36*
X500888D02*
X492618D01*
Y88346D01*
X500888D01*
Y95116D01*
D02*
G37*
G36*
X195834Y79920D02*
Y72390D01*
X203363D01*
X203225Y73441D01*
X202329Y75603D01*
X200904Y77460D01*
X199047Y78885D01*
X196885Y79781D01*
X195834Y79920D01*
D02*
G37*
G36*
X193294D02*
X192243Y79781D01*
X190081Y78885D01*
X188224Y77460D01*
X186799Y75603D01*
X185903Y73441D01*
X185765Y72390D01*
X193294D01*
Y79920D01*
D02*
G37*
G36*
X713994Y75745D02*
Y67056D01*
X722683D01*
X722506Y68407D01*
X721494Y70849D01*
X719885Y72947D01*
X717787Y74556D01*
X715345Y75568D01*
X713994Y75745D01*
D02*
G37*
G36*
X711454D02*
X710103Y75568D01*
X707661Y74556D01*
X705563Y72947D01*
X703954Y70849D01*
X702942Y68407D01*
X702765Y67056D01*
X711454D01*
Y75745D01*
D02*
G37*
G36*
X781946Y75318D02*
X773176D01*
Y66548D01*
X781946D01*
Y75318D01*
D02*
G37*
G36*
X770636D02*
X761866D01*
Y66548D01*
X770636D01*
Y75318D01*
D02*
G37*
G36*
X255016Y79318D02*
X252894Y79039D01*
X250917Y78220D01*
X249219Y76917D01*
X247916Y75219D01*
X247097Y73242D01*
X246818Y71120D01*
X247097Y68998D01*
X247916Y67021D01*
X249219Y65323D01*
X250917Y64020D01*
X252894Y63201D01*
X255016Y62922D01*
X257138Y63201D01*
X259115Y64020D01*
X260813Y65323D01*
X262116Y67021D01*
X262935Y68998D01*
X263214Y71120D01*
X262935Y73242D01*
X262116Y75219D01*
X260813Y76917D01*
X259115Y78220D01*
X257138Y79039D01*
X255016Y79318D01*
D02*
G37*
G36*
X203363Y69850D02*
X195834D01*
Y62320D01*
X196885Y62459D01*
X199047Y63355D01*
X200904Y64780D01*
X202329Y66637D01*
X203225Y68799D01*
X203363Y69850D01*
D02*
G37*
G36*
X193294D02*
X185765D01*
X185903Y68799D01*
X186799Y66637D01*
X188224Y64780D01*
X190081Y63355D01*
X192243Y62459D01*
X193294Y62320D01*
Y69850D01*
D02*
G37*
G36*
X620402Y75064D02*
X601846D01*
Y56508D01*
X620402D01*
Y75064D01*
D02*
G37*
G36*
X687324Y75144D02*
X684902Y74825D01*
X682645Y73890D01*
X680707Y72403D01*
X679220Y70465D01*
X678285Y68208D01*
X677966Y65786D01*
X678285Y63364D01*
X679220Y61107D01*
X680707Y59169D01*
X682645Y57682D01*
X684902Y56747D01*
X687324Y56428D01*
X689746Y56747D01*
X692003Y57682D01*
X693941Y59169D01*
X695428Y61107D01*
X696363Y63364D01*
X696682Y65786D01*
X696363Y68208D01*
X695428Y70465D01*
X693941Y72403D01*
X692003Y73890D01*
X689746Y74825D01*
X687324Y75144D01*
D02*
G37*
G36*
X661924D02*
X659502Y74825D01*
X657245Y73890D01*
X655307Y72403D01*
X653820Y70465D01*
X652885Y68208D01*
X652566Y65786D01*
X652885Y63364D01*
X653820Y61107D01*
X655307Y59169D01*
X657245Y57682D01*
X659502Y56747D01*
X661924Y56428D01*
X664346Y56747D01*
X666603Y57682D01*
X668541Y59169D01*
X670028Y61107D01*
X670963Y63364D01*
X671282Y65786D01*
X670963Y68208D01*
X670028Y70465D01*
X668541Y72403D01*
X666603Y73890D01*
X664346Y74825D01*
X661924Y75144D01*
D02*
G37*
G36*
X636524D02*
X634102Y74825D01*
X631845Y73890D01*
X629907Y72403D01*
X628420Y70465D01*
X627485Y68208D01*
X627166Y65786D01*
X627485Y63364D01*
X628420Y61107D01*
X629907Y59169D01*
X631845Y57682D01*
X634102Y56747D01*
X636524Y56428D01*
X638946Y56747D01*
X641203Y57682D01*
X643141Y59169D01*
X644628Y61107D01*
X645563Y63364D01*
X645882Y65786D01*
X645563Y68208D01*
X644628Y70465D01*
X643141Y72403D01*
X641203Y73890D01*
X638946Y74825D01*
X636524Y75144D01*
D02*
G37*
G36*
X822706Y74636D02*
X820284Y74317D01*
X818027Y73382D01*
X816089Y71895D01*
X814602Y69957D01*
X813667Y67700D01*
X813348Y65278D01*
X813667Y62856D01*
X814602Y60599D01*
X816089Y58661D01*
X818027Y57174D01*
X820284Y56239D01*
X822706Y55920D01*
X825128Y56239D01*
X827385Y57174D01*
X829323Y58661D01*
X830810Y60599D01*
X831745Y62856D01*
X832064Y65278D01*
X831745Y67700D01*
X830810Y69957D01*
X829323Y71895D01*
X827385Y73382D01*
X825128Y74317D01*
X822706Y74636D01*
D02*
G37*
G36*
X797306D02*
X794884Y74317D01*
X792627Y73382D01*
X790689Y71895D01*
X789202Y69957D01*
X788267Y67700D01*
X787948Y65278D01*
X788267Y62856D01*
X789202Y60599D01*
X790689Y58661D01*
X792627Y57174D01*
X794884Y56239D01*
X797306Y55920D01*
X799728Y56239D01*
X801985Y57174D01*
X803923Y58661D01*
X805410Y60599D01*
X806345Y62856D01*
X806664Y65278D01*
X806345Y67700D01*
X805410Y69957D01*
X803923Y71895D01*
X801985Y73382D01*
X799728Y74317D01*
X797306Y74636D01*
D02*
G37*
G36*
X722683Y64516D02*
X713994D01*
Y55827D01*
X715345Y56004D01*
X717787Y57016D01*
X719885Y58625D01*
X721494Y60723D01*
X722506Y63165D01*
X722683Y64516D01*
D02*
G37*
G36*
X711454D02*
X702765D01*
X702942Y63165D01*
X703954Y60723D01*
X705563Y58625D01*
X707661Y57016D01*
X710103Y56004D01*
X711454Y55827D01*
Y64516D01*
D02*
G37*
G36*
X781946Y64008D02*
X773176D01*
Y55238D01*
X781946D01*
Y64008D01*
D02*
G37*
G36*
X770636D02*
X761866D01*
Y55238D01*
X770636D01*
Y64008D01*
D02*
G37*
G36*
X321310Y104202D02*
X317168Y103876D01*
X313128Y102906D01*
X309289Y101316D01*
X305746Y99145D01*
X302587Y96447D01*
X299889Y93287D01*
X297718Y89745D01*
X296128Y85906D01*
X295158Y81866D01*
X294832Y77724D01*
X295158Y73582D01*
X296128Y69542D01*
X297718Y65703D01*
X299889Y62161D01*
X302587Y59001D01*
X305746Y56303D01*
X309289Y54132D01*
X313128Y52542D01*
X317168Y51572D01*
X321310Y51246D01*
X325452Y51572D01*
X329492Y52542D01*
X333331Y54132D01*
X336874Y56303D01*
X340033Y59001D01*
X342731Y62161D01*
X344902Y65703D01*
X346492Y69542D01*
X347462Y73582D01*
X347788Y77724D01*
X347462Y81866D01*
X346492Y85906D01*
X344902Y89745D01*
X342731Y93287D01*
X340033Y96447D01*
X336874Y99145D01*
X333331Y101316D01*
X329492Y102906D01*
X325452Y103876D01*
X321310Y104202D01*
D02*
G37*
G36*
X915282Y43830D02*
X908512D01*
Y35560D01*
X915282D01*
Y43830D01*
D02*
G37*
G36*
X1051750Y48830D02*
X1039980D01*
Y35560D01*
X1051750D01*
Y48830D01*
D02*
G37*
G36*
X1037440D02*
X1025670D01*
Y35560D01*
X1037440D01*
Y48830D01*
D02*
G37*
G36*
X915282Y33020D02*
X908512D01*
Y24750D01*
X915282D01*
Y33020D01*
D02*
G37*
G36*
X1051750Y33020D02*
X1039980D01*
Y19750D01*
X1051750D01*
Y33020D01*
D02*
G37*
G36*
X1037440D02*
X1025670D01*
Y19750D01*
X1037440D01*
Y33020D01*
D02*
G37*
%LPD*%
G36*
X777991Y375795D02*
X778702Y374827D01*
X778600Y374053D01*
X787400D01*
Y371513D01*
X778600D01*
X778739Y370463D01*
X779635Y368300D01*
X781060Y366443D01*
X782917Y365018D01*
X785079Y364122D01*
X787400Y363817D01*
X788558Y361407D01*
X782811Y355660D01*
X768650D01*
Y361330D01*
X756190D01*
X754094Y361330D01*
X751664Y361330D01*
X751554Y361440D01*
X751829Y364757D01*
X752408Y365171D01*
X752720Y365064D01*
X754762Y365064D01*
X757990D01*
Y371104D01*
X759260D01*
Y372374D01*
X765800D01*
Y376919D01*
X776775D01*
X777991Y375795D01*
D02*
G37*
G36*
X677381Y354798D02*
X677119Y354166D01*
X676840Y352044D01*
X677119Y349922D01*
X677938Y347945D01*
X679241Y346247D01*
X680939Y344944D01*
X682916Y344125D01*
X685038Y343846D01*
X687160Y344125D01*
X689137Y344944D01*
X690835Y346247D01*
X692138Y347945D01*
X692370Y348505D01*
X695159Y349309D01*
X696496Y348195D01*
Y344124D01*
X704766D01*
Y352164D01*
X707306D01*
Y344124D01*
X712617D01*
X713669Y341584D01*
X704631Y332546D01*
X642273D01*
X641139Y334845D01*
X642151Y337216D01*
X643279Y337648D01*
X644697Y337865D01*
X646395Y336562D01*
X648372Y335743D01*
X650494Y335464D01*
X652616Y335743D01*
X654593Y336562D01*
X656291Y337865D01*
X657594Y339563D01*
X658413Y341540D01*
X658692Y343662D01*
X658688Y343690D01*
X661069Y345065D01*
X661889Y344436D01*
X663866Y343617D01*
X665988Y343338D01*
X668110Y343617D01*
X670087Y344436D01*
X671785Y345739D01*
X673088Y347437D01*
X673907Y349414D01*
X674186Y351536D01*
X673907Y353658D01*
X673088Y355635D01*
X675141Y357038D01*
X677381Y354798D01*
D02*
G37*
%LPC*%
G36*
X765800Y369834D02*
X760530D01*
Y365064D01*
X765800D01*
Y369834D01*
D02*
G37*
%LPD*%
D10*
X871474Y271526D02*
X1003210D01*
X1074632Y342948D01*
X745744Y386588D02*
X746760Y387604D01*
X738378Y386588D02*
X745744D01*
X759260Y387604D02*
Y406734D01*
X746760Y383540D02*
Y387604D01*
X674236Y526034D02*
X674438Y495650D01*
X776775Y380027D02*
X784606Y387858D01*
X750273Y380027D02*
X776775D01*
X746760Y383540D02*
X750273Y380027D01*
X864870Y278130D02*
X871474Y271526D01*
X864870Y278130D02*
Y297180D01*
X784098Y352552D02*
X819404Y387858D01*
X761372Y352552D02*
X784098D01*
X784606Y387858D02*
X819404D01*
X706036Y367164D02*
X708406Y369534D01*
Y383032D01*
X712966Y405650D02*
X720090Y398526D01*
Y343610D02*
Y398526D01*
X705918Y329438D02*
X720090Y343610D01*
X715332Y410650D02*
X724662Y401320D01*
Y340614D02*
Y401320D01*
X709168Y325120D02*
X724662Y340614D01*
X716936Y415650D02*
X729234Y403352D01*
Y336296D02*
Y403352D01*
X713740Y320802D02*
X729234Y336296D01*
X704438Y400650D02*
X708406Y396682D01*
Y383032D02*
Y396682D01*
X698209Y352164D02*
X706036D01*
X691134Y367164D02*
X706036D01*
X684438Y373860D02*
X691134Y367164D01*
X669438Y365146D02*
Y380650D01*
X665988Y361696D02*
X669438Y365146D01*
X665988Y351536D02*
Y361696D01*
X659438Y363782D02*
Y380650D01*
X650494Y354838D02*
X659438Y363782D01*
X650494Y343662D02*
Y354838D01*
X634238Y345440D02*
X654438Y365640D01*
X634238Y339598D02*
Y345440D01*
X548132Y329438D02*
X705918D01*
X442468Y223774D02*
X548132Y329438D01*
X595630Y320802D02*
X713740D01*
X446278Y171450D02*
X595630Y320802D01*
X572262Y325120D02*
X709168D01*
X443230Y196088D02*
X572262Y325120D01*
X757393Y301279D02*
X784606Y274066D01*
X739140Y301279D02*
X757393D01*
X808990Y322834D02*
X815340Y329184D01*
X739902Y322834D02*
X808990D01*
X774954Y334772D02*
X802894Y362712D01*
X761380Y334772D02*
X774954D01*
X832104Y311658D02*
X834898Y314452D01*
X762762Y311658D02*
X832104D01*
X1145540Y556140D02*
X1163332Y538348D01*
X1145540Y216504D02*
Y556140D01*
X899657Y136906D02*
X1001268D01*
X397122Y183896D02*
Y192906D01*
X396360Y183134D02*
X397122Y183896D01*
X304038Y183134D02*
X396360D01*
X412242Y339852D02*
X432308Y359918D01*
X410344Y339852D02*
X412242D01*
X624010Y372312D02*
Y380650D01*
X404622Y276352D02*
X441452D01*
X396360Y268090D02*
X404622Y276352D01*
X684438Y373860D02*
Y380650D01*
X758578Y424434D02*
X759086Y423926D01*
Y406908D02*
Y423926D01*
X742362Y425650D02*
X743578Y424434D01*
X704438Y425650D02*
X742362D01*
X750615Y286766D02*
X755904D01*
X748493Y267462D02*
X753872D01*
X755142Y268732D01*
X749300Y248666D02*
X773938D01*
X776732Y251460D01*
X402336Y171450D02*
X446278D01*
X573024Y342504D02*
X574914D01*
X590042Y357632D01*
X1258920Y267088D02*
X1265428D01*
X1251338Y259506D02*
X1258920Y267088D01*
X1251338Y194444D02*
Y259506D01*
X1209294Y152400D02*
X1251338Y194444D01*
X1024890Y152400D02*
X1209294D01*
X547998Y379730D02*
X549148Y378580D01*
X516636Y379730D02*
X547998D01*
X675506Y534536D02*
X692912Y551942D01*
X674236Y534536D02*
X675506D01*
X674236Y526034D02*
Y534536D01*
X602234Y550672D02*
X603370Y549536D01*
Y528320D02*
Y549536D01*
X432562Y158242D02*
X433324Y157480D01*
X412122Y158242D02*
X432562D01*
X433070Y183896D02*
X433324Y183642D01*
X412122Y183896D02*
X433070D01*
X433324Y209804D02*
X434086Y209042D01*
X411360Y209804D02*
X433324D01*
X432562Y236220D02*
X433832Y237490D01*
X411614Y236220D02*
X432562D01*
X432054Y262890D02*
X434340Y265176D01*
X411360Y262890D02*
X432054D01*
X430276Y289560D02*
X433578Y292862D01*
X410852Y289560D02*
X430276D01*
X420878Y314198D02*
X433324Y326644D01*
X410598Y314198D02*
X420878D01*
X515874Y350774D02*
X554736D01*
X441452Y276352D02*
X515874Y350774D01*
X479298Y355600D02*
X551942D01*
X425958Y302260D02*
X479298Y355600D01*
X401828Y302260D02*
X425958D01*
X529550Y440650D02*
X589438D01*
X417068Y328168D02*
X529550Y440650D01*
X403098Y328168D02*
X417068D01*
X629010Y371205D02*
Y380650D01*
X533146Y346202D02*
X558038D01*
X436372Y249428D02*
X533146Y346202D01*
X402336Y249428D02*
X436372D01*
X400304Y196088D02*
X443230D01*
X530352Y111894D02*
Y132588D01*
X502158Y132588D02*
X502158Y132588D01*
X502158Y111386D02*
Y132588D01*
X268358Y498976D02*
X271780Y495554D01*
X244348Y498976D02*
X268358D01*
X268612Y547998D02*
X271272Y545338D01*
X244602Y547998D02*
X268612D01*
X731266Y540512D02*
X751840Y519938D01*
Y479820D02*
Y519938D01*
X860298Y410330D02*
X860418Y410210D01*
X860298Y410330D02*
Y432054D01*
X1145928Y570230D02*
X1146048Y570110D01*
X1120140Y570230D02*
X1145928D01*
X1284104Y252088D02*
X1285240Y250952D01*
X1265428Y252088D02*
X1284104D01*
X1011936Y83312D02*
X1015746Y79502D01*
X996322Y83312D02*
X1011936D01*
X996322D02*
X996816Y83806D01*
Y103124D01*
X981068Y153162D02*
X982726Y151504D01*
X957072Y153162D02*
X981068D01*
X881888Y236474D02*
Y257168D01*
X881380Y235966D02*
X881888Y236474D01*
X802894Y362712D02*
X818896D01*
X877062Y89274D02*
X885724Y80612D01*
X938022D01*
X881126Y120650D02*
X1004062D01*
X1011816Y112896D01*
Y103124D02*
Y112896D01*
X1003046Y130556D02*
X1024890Y152400D01*
X897636Y130556D02*
X1003046D01*
X776732Y251460D02*
X897636Y130556D01*
X755904Y286766D02*
X876166Y166504D01*
X755142Y268732D02*
X767080Y256794D01*
X688931Y361442D02*
X698209Y352164D01*
X688848Y361442D02*
X688931D01*
X679438Y370852D02*
X688848Y361442D01*
X684530Y352044D02*
X685038D01*
X674438Y362136D02*
X684530Y352044D01*
X674438Y362136D02*
Y380650D01*
X654438Y365640D02*
Y380650D01*
X954022Y43690D02*
X954278Y43434D01*
X954022Y43690D02*
Y60612D01*
X931552Y34798D02*
X946538Y49784D01*
X931552Y34290D02*
Y34798D01*
X946538Y49784D02*
Y64396D01*
X784606Y274066D02*
X811276D01*
X875418Y338208D01*
Y410210D01*
X779769Y256794D02*
X899657Y136906D01*
X767080Y256794D02*
X779769D01*
X876166Y166504D02*
X982726D01*
X613664Y342900D02*
X619760Y348996D01*
X630428D01*
X649438Y368006D01*
Y380650D01*
X597916Y353314D02*
X627380D01*
X592328Y347726D02*
X597916Y353314D01*
X592328Y341122D02*
Y347726D01*
X627380Y353314D02*
X644438Y370372D01*
X551942Y355600D02*
X566928Y370586D01*
X554736Y350774D02*
X570230Y366268D01*
X558038Y346202D02*
X573786Y361950D01*
X619755D01*
X570230Y366268D02*
X617966D01*
X566928Y370586D02*
X616177D01*
X607585Y374904D02*
X609438Y376757D01*
X587248Y374904D02*
X607585D01*
X579374Y382778D02*
X587248Y374904D01*
X616177Y370586D02*
X619010Y373419D01*
X617966Y366268D02*
X624010Y372312D01*
X619755Y361950D02*
X629010Y371205D01*
X624586Y357632D02*
X639438Y372484D01*
X590042Y357632D02*
X624586D01*
X609438Y376757D02*
Y380650D01*
X629010D02*
X629438D01*
X619010Y373419D02*
Y380222D01*
X624010Y380650D02*
X624438D01*
X619010Y380222D02*
X619438Y380650D01*
X1014876Y103124D02*
X1083710Y34290D01*
X1011816Y103124D02*
X1014876D01*
X644438Y370372D02*
Y380650D01*
X644398Y380610D02*
X644438Y380650D01*
X713455Y449667D02*
X719210Y455422D01*
X773430D01*
X733044Y479178D02*
X751840D01*
X729770D02*
X733044D01*
X638810Y521462D02*
Y525526D01*
X629438Y512090D02*
X638810Y521462D01*
X629438Y495650D02*
Y512090D01*
X1145540Y556140D02*
Y558038D01*
X1144912Y556768D02*
X1145540Y556140D01*
X1163332Y498348D02*
Y538348D01*
X1091850Y162814D02*
X1145540Y216504D01*
X1027176Y162814D02*
X1091850D01*
X1001268Y136906D02*
X1027176Y162814D01*
X982726Y166504D02*
Y215742D01*
X639438Y372484D02*
Y380650D01*
X679438Y370852D02*
Y380650D01*
X1236232Y296284D02*
X1265428Y267088D01*
X1236232Y296284D02*
Y306648D01*
X982726Y215742D02*
X985932Y218948D01*
X912594Y410210D02*
X913032Y410648D01*
X875418Y410210D02*
X912594D01*
X762508Y449072D02*
X775970Y435610D01*
X782828D01*
X777240Y417830D02*
Y424688D01*
X764286Y437642D02*
X777240Y424688D01*
X729742Y437642D02*
X764286D01*
X720344Y481838D02*
Y495300D01*
X714156Y475650D02*
X720344Y481838D01*
X704438Y475650D02*
X714156D01*
X691522Y511556D02*
X704342D01*
X684438Y504472D02*
X691522Y511556D01*
X684438Y495650D02*
Y504472D01*
X722750Y430650D02*
X729742Y437642D01*
X704438Y430650D02*
X722750D01*
X725770Y449072D02*
X762508D01*
X712348Y435650D02*
X725770Y449072D01*
X704438Y435650D02*
X712348D01*
X713455Y442864D02*
Y449667D01*
X704866Y441078D02*
X711669D01*
X713455Y442864D01*
X704438Y440650D02*
X704866Y441078D01*
X556514Y422656D02*
X568520Y410650D01*
X589438D01*
X576072Y400650D02*
X589438D01*
X554002Y378580D02*
X576072Y400650D01*
X549148Y378580D02*
X554002D01*
X561218Y405650D02*
X589438D01*
X549148Y393580D02*
X561218Y405650D01*
X244348Y513976D02*
X271914D01*
X244602Y562998D02*
X271406D01*
X720876Y464178D02*
X733044D01*
X712776Y456078D02*
X720876Y464178D01*
X704866Y456078D02*
X712776D01*
X704438Y455650D02*
X704866Y456078D01*
X711242Y460650D02*
X729770Y479178D01*
X704438Y460650D02*
X711242D01*
X736600Y406908D02*
X744086D01*
X722858Y420650D02*
X736600Y406908D01*
X759086D02*
X759260Y406734D01*
X654050Y507841D02*
X659010Y502882D01*
X654050Y507841D02*
Y558038D01*
X680974Y584962D01*
X693674Y581660D02*
Y610362D01*
X659010Y546996D02*
X693674Y581660D01*
X659010Y515232D02*
Y546996D01*
Y515232D02*
X664438Y509804D01*
Y495650D02*
Y509804D01*
X659010Y496078D02*
Y502882D01*
Y496078D02*
X659438Y495650D01*
X668274Y610362D02*
X685546Y627634D01*
X699770D01*
X712724Y614680D01*
Y591058D02*
Y614680D01*
X665226Y543560D02*
X712724Y591058D01*
X665226Y517652D02*
Y543560D01*
Y517652D02*
X669438Y513440D01*
Y495650D02*
Y513440D01*
X689236Y520592D02*
Y526034D01*
X679438Y510794D02*
X689236Y520592D01*
X604012Y610362D02*
X617474D01*
X571754Y578104D02*
X604012Y610362D01*
X571754Y470408D02*
Y578104D01*
X596646Y584962D02*
X604774D01*
X581914Y570230D02*
X596646Y584962D01*
X581914Y476758D02*
Y570230D01*
X571754Y470408D02*
X581512Y460650D01*
X589438D01*
X618490Y596646D02*
X630174Y584962D01*
X598678Y596646D02*
X618490D01*
X576834Y574802D02*
X598678Y596646D01*
X576834Y474980D02*
Y574802D01*
Y474980D02*
X581164Y470650D01*
X589438D01*
X581914Y476758D02*
X583022Y475650D01*
X589438D01*
X171086Y513976D02*
X244348D01*
X161544Y504434D02*
X171086Y513976D01*
X209166Y598434D02*
X244602Y562998D01*
X161544Y598434D02*
X209166D01*
X946538Y64396D02*
X952754Y70612D01*
X954022D01*
X961040Y53594D02*
X980560D01*
X954022Y60612D02*
X961040Y53594D01*
X954022Y70612D02*
X995306D01*
X995560Y53594D02*
Y70358D01*
X704438Y415650D02*
X716936D01*
X397122Y166236D02*
X402336Y171450D01*
X397122Y158242D02*
Y166236D01*
X704438Y410650D02*
X715332D01*
X397122Y192906D02*
X400304Y196088D01*
X246380Y125476D02*
X304038Y183134D01*
X704438Y405650D02*
X712966D01*
X400812Y223774D02*
X442468D01*
X396360Y219322D02*
X400812Y223774D01*
X396360Y209804D02*
Y219322D01*
X746372Y352552D02*
X746760Y352940D01*
Y373634D01*
X396614Y243706D02*
X402336Y249428D01*
X396614Y236220D02*
Y243706D01*
X396360Y262890D02*
Y268090D01*
X395852Y296284D02*
X401828Y302260D01*
X395852Y289560D02*
Y296284D01*
X495434Y445650D02*
X589438D01*
X395344Y345560D02*
X495434Y445650D01*
X395344Y339852D02*
Y345560D01*
X395598Y320668D02*
X403098Y328168D01*
X395598Y314198D02*
Y320668D01*
X280924Y236220D02*
X396614D01*
X170180Y125476D02*
X280924Y236220D01*
X279908Y209804D02*
X396360D01*
X195580Y125476D02*
X279908Y209804D01*
X304546Y158242D02*
X397122D01*
X271780Y125476D02*
X304546Y158242D01*
X286766Y262890D02*
X396360D01*
X170180Y379476D02*
X286766Y262890D01*
X285496Y289560D02*
X395852D01*
X195580Y379476D02*
X285496Y289560D01*
X311658Y314198D02*
X395598D01*
X246380Y379476D02*
X311658Y314198D01*
X311404Y339852D02*
X395344D01*
X271780Y379476D02*
X311404Y339852D01*
X704438Y420650D02*
X722858D01*
X679438Y495650D02*
Y510794D01*
X609438Y495650D02*
Y509778D01*
X603370Y515846D02*
X609438Y509778D01*
X603370Y515846D02*
Y527050D01*
X614438Y495650D02*
Y510552D01*
X618370Y514484D01*
Y527050D01*
X995560Y70358D02*
Y82550D01*
X995306Y70612D02*
X995560Y70358D01*
X973702Y90932D02*
X981322Y83312D01*
X948342Y90932D02*
X973702D01*
X938022Y80612D02*
X948342Y90932D01*
X995560Y82550D02*
X996322Y83312D01*
X661924Y65786D02*
Y66294D01*
D17*
X938022Y60612D02*
D03*
X954022D02*
D03*
Y70612D02*
D03*
Y80612D02*
D03*
X938022D02*
D03*
Y70612D02*
D03*
D18*
X530352Y111894D02*
D03*
Y96894D02*
D03*
X1146048Y555110D02*
D03*
Y570110D02*
D03*
X751840Y464820D02*
D03*
Y479820D02*
D03*
X733044Y464178D02*
D03*
Y479178D02*
D03*
X706036Y352164D02*
D03*
Y367164D02*
D03*
X502158Y96386D02*
D03*
Y111386D02*
D03*
X1265428Y252088D02*
D03*
Y267088D02*
D03*
X982726Y151504D02*
D03*
Y166504D02*
D03*
X881888Y257168D02*
D03*
Y272168D02*
D03*
X244602Y547998D02*
D03*
Y562998D02*
D03*
X244348Y513976D02*
D03*
Y498976D02*
D03*
X549148Y378580D02*
D03*
Y393580D02*
D03*
D19*
X689236Y526034D02*
D03*
X674236D02*
D03*
X743578Y424434D02*
D03*
X758578D02*
D03*
X743905Y404876D02*
D03*
X758905D02*
D03*
X618370Y528320D02*
D03*
X603370D02*
D03*
X746372Y352552D02*
D03*
X761372D02*
D03*
X996816Y103124D02*
D03*
X1011816D02*
D03*
X860418Y410210D02*
D03*
X875418D02*
D03*
X996322Y83312D02*
D03*
X981322D02*
D03*
X995560Y53594D02*
D03*
X980560D02*
D03*
X397122Y158242D02*
D03*
X412122D02*
D03*
X397122Y183896D02*
D03*
X412122D02*
D03*
X396360Y262890D02*
D03*
X411360D02*
D03*
X395852Y289560D02*
D03*
X410852D02*
D03*
X410598Y314198D02*
D03*
X395598D02*
D03*
X410344Y339852D02*
D03*
X395344D02*
D03*
X411360Y209804D02*
D03*
X396360D02*
D03*
X411614Y236220D02*
D03*
X396614D02*
D03*
X931552Y34290D02*
D03*
X916552D02*
D03*
D20*
X684438Y380650D02*
D03*
X679438D02*
D03*
X674438D02*
D03*
X669438D02*
D03*
X664438D02*
D03*
X659438D02*
D03*
X654438D02*
D03*
X649438D02*
D03*
X644438D02*
D03*
X639438D02*
D03*
X634438D02*
D03*
X629438D02*
D03*
X624438D02*
D03*
X619438D02*
D03*
X614438D02*
D03*
X609438D02*
D03*
Y495650D02*
D03*
X614438D02*
D03*
X619438D02*
D03*
X624438D02*
D03*
X629438D02*
D03*
X634438D02*
D03*
X639438D02*
D03*
X644438D02*
D03*
X649438D02*
D03*
X654438D02*
D03*
X659438D02*
D03*
X664438D02*
D03*
X669438D02*
D03*
X674438D02*
D03*
X679438D02*
D03*
X684438D02*
D03*
D21*
X589438Y400650D02*
D03*
Y405650D02*
D03*
Y410650D02*
D03*
Y415650D02*
D03*
Y420650D02*
D03*
Y425650D02*
D03*
Y430650D02*
D03*
Y435650D02*
D03*
Y440650D02*
D03*
Y445650D02*
D03*
Y450650D02*
D03*
Y455650D02*
D03*
Y460650D02*
D03*
Y465650D02*
D03*
Y470650D02*
D03*
Y475650D02*
D03*
X704438D02*
D03*
Y470650D02*
D03*
Y465650D02*
D03*
Y460650D02*
D03*
Y455650D02*
D03*
Y450650D02*
D03*
Y445650D02*
D03*
Y440650D02*
D03*
Y435650D02*
D03*
Y430650D02*
D03*
Y425650D02*
D03*
Y420650D02*
D03*
Y415650D02*
D03*
Y410650D02*
D03*
Y405650D02*
D03*
Y400650D02*
D03*
D22*
X759260Y387604D02*
D03*
X746760D02*
D03*
Y371104D02*
D03*
X759260D02*
D03*
D23*
X1038710Y34290D02*
D03*
Y133290D02*
D03*
X1083710D02*
D03*
Y34290D02*
D03*
D33*
X177444Y472684D02*
D03*
X145644D02*
D03*
X145644Y630184D02*
D03*
X177444Y630184D02*
D03*
D36*
X1074632Y342948D02*
D03*
X982032Y358648D02*
D03*
X1167232D02*
D03*
X1074632Y451248D02*
D03*
X1163332Y498348D02*
D03*
X1236232Y306648D02*
D03*
X1165332Y221948D02*
D03*
X985932Y218948D02*
D03*
X913032Y410648D02*
D03*
D45*
X822706Y65278D02*
D03*
X797306D02*
D03*
X712724Y65786D02*
D03*
X687324D02*
D03*
X661924D02*
D03*
X636524D02*
D03*
D46*
X771906Y65278D02*
D03*
X611124Y65786D02*
D03*
D47*
X1074632Y208648D02*
D03*
Y508648D02*
D03*
X924632Y358648D02*
D03*
X1224632D02*
D03*
D48*
X1029632D02*
D03*
X1119632D02*
D03*
D49*
X161544Y504434D02*
D03*
Y598434D02*
D03*
Y551434D02*
D03*
D50*
X271780Y379476D02*
D03*
X246380D02*
D03*
X220980D02*
D03*
X195580D02*
D03*
X170180D02*
D03*
Y125476D02*
D03*
X195580D02*
D03*
X220980D02*
D03*
X246380D02*
D03*
X271780D02*
D03*
D51*
X727964Y704342D02*
D03*
X570484Y635000D02*
D03*
X727964D02*
D03*
X570484Y704342D02*
D03*
D52*
X706374Y673862D02*
D03*
X592074D02*
D03*
D53*
X642874Y610362D02*
D03*
X617474D02*
D03*
X668274D02*
D03*
X680974Y584962D02*
D03*
X655574D02*
D03*
X604774D02*
D03*
X630174D02*
D03*
D54*
X693674Y610362D02*
D03*
D55*
X843788Y551180D02*
D03*
X449834D02*
D03*
X646176Y224536D02*
D03*
D56*
X1076198Y607822D02*
D03*
X1215898Y211582D02*
D03*
X318516Y635254D02*
D03*
X919869Y212344D02*
D03*
X321310Y77724D02*
D03*
D57*
X255016Y71120D02*
D03*
X194564D02*
D03*
X787654Y399888D02*
D03*
X787400Y372784D02*
D03*
X819404Y387858D02*
D03*
X708406Y383032D02*
D03*
X665988Y351536D02*
D03*
X650494Y343662D02*
D03*
X634238Y339598D02*
D03*
X739140Y301279D02*
D03*
X739902Y322834D02*
D03*
X761380Y334772D02*
D03*
X762762Y311658D02*
D03*
X750615Y286766D02*
D03*
X748493Y267462D02*
D03*
X749300Y248666D02*
D03*
X573024Y342504D02*
D03*
X516636Y379730D02*
D03*
X692912Y551942D02*
D03*
X602234Y550672D02*
D03*
X433578Y292862D02*
D03*
X433324Y326644D02*
D03*
X432308Y359918D02*
D03*
X434340Y265176D02*
D03*
X433832Y237490D02*
D03*
X434086Y209042D02*
D03*
X433324Y183642D02*
D03*
Y157480D02*
D03*
X530352Y132588D02*
D03*
X502158D02*
D03*
X271780Y495554D02*
D03*
X271272Y545338D02*
D03*
X731266Y540512D02*
D03*
X860298Y432054D02*
D03*
X1120140Y570230D02*
D03*
X1285240Y250952D02*
D03*
X1015746Y79502D02*
D03*
X957072Y153162D02*
D03*
X881380Y235966D02*
D03*
X815340Y329184D02*
D03*
X818896Y362712D02*
D03*
X834898Y314452D02*
D03*
X877062Y89274D02*
D03*
X881126Y120650D02*
D03*
X685038Y352044D02*
D03*
X956056Y41148D02*
D03*
X613664Y342900D02*
D03*
X592328Y341122D02*
D03*
X579374Y382778D02*
D03*
X864870Y297180D02*
D03*
X773430Y455422D02*
D03*
X638810Y525526D02*
D03*
X782828Y435610D02*
D03*
X777240Y417830D02*
D03*
X720344Y495300D02*
D03*
X704342Y511556D02*
D03*
X556514Y422656D02*
D03*
X271914Y513976D02*
D03*
X271406Y562998D02*
D03*
D58*
X738378Y386588D02*
D03*
M02*
