M48
;Layer_Color=9474304
;FILE_FORMAT=4:4
METRIC,LZ
;TYPE=PLATED
T1F00S00C0.3556
T2F00S00C0.7112
T3F00S00C0.9000
T4F00S00C1.0000
T5F00S00C1.3208
T6F00S00C1.5240
T7F00S00C1.6000
T8F00S00C1.6500
T9F00S00C1.9812
T10F00S00C3.3500
T11F00S00C3.5052
T12F00S00C4.0000
T13F00S00C14.7320
%
T01
X00738378Y00386588
T02
X00194564Y0007112
X00255016
X00502158Y00132588
X00530352
X00881126Y0012065
X00877062Y00089274
X00956056Y00041148
X01015746Y00079502
X00957072Y00153162
X0128524Y00250952
X0088138Y00235966
X0086487Y0029718
X00834898Y00314452
X0081534Y00329184
X00818896Y00362712
X00819404Y00387858
X00787654Y00399888
X007874Y00372784
X0077724Y0041783
X00782828Y0043561
X0077343Y00455422
X00720344Y004953
X00704342Y00511556
X0063881Y00525526
X00556514Y00422656
X00579374Y00382778
X00573024Y00342504
X00592328Y00341122
X00613664Y003429
X00634238Y00339598
X00650494Y00343662
X00665988Y00351536
X00685038Y00352044
X00708406Y00383032
X00739902Y00322834
X0073914Y00301279
X00750615Y00286766
X00748493Y00267462
X007493Y00248666
X00762762Y00311658
X0076138Y00334772
X00860298Y00432054
X00516636Y0037973
X00432308Y00359918
X00433324Y00326644
X00433578Y00292862
X0043434Y00265176
X00433832Y0023749
X00434086Y00209042
X00433324Y00183642
Y0015748
X0027178Y00495554
X00271914Y00513976
X00271272Y00545338
X00271406Y00562998
X00602234Y00550672
X00692912Y00551942
X00731266Y00540512
X0112014Y0057023
T03
X00611124Y00065786
X00636524
X00661924
X00687324
X00712724
X00771906Y00065278
X00797306
X00822706
T04
X00604774Y00584962
X00630174
X00655574
X00680974
X00668274Y00610362
X00642874
X00617474
X00693674
T05
X0017018Y00125476
X0019558
X0022098
X0024638
X0027178
Y00379476
X0024638
X0022098
X0019558
X0017018
T06
X00985932Y00218948
X00982032Y00358648
X01074632Y00342948
X01167232Y00358648
X01236232Y00306648
X01165332Y00221948
X01163332Y00498348
X01074632Y00451248
X00913032Y00410648
T07
X01029632Y00358648
X01119632
T08
X00570484Y00635
Y00704342
X00727964
Y00635
T09
X00145644Y00472684
X00177444
X00161544Y00504434
Y00551434
Y00598434
X00145644Y00630184
X00177444Y00630184
T10
X00592074Y00673862
X00706374
T11
X0032131Y00077724
X01215898Y00211582
X00919869Y00212344
X00318516Y00635254
X01076198Y00607822
T12
X01074632Y00208648
Y00508648
X01224632Y00358648
X00924632
T13
X00646176Y00224536
X00449834Y0055118
X00843788
M30
