G04*
G04 #@! TF.GenerationSoftware,Altium Limited,Altium Designer,18.1.9 (240)*
G04*
G04 Layer_Color=8421504*
%FSLAX44Y44*%
%MOMM*%
G71*
G01*
G75*
%ADD17R,0.8500X0.4500*%
%ADD18R,1.4000X1.1000*%
%ADD19R,1.1000X1.4000*%
%ADD20R,0.3048X1.1938*%
%ADD21R,1.1938X0.3048*%
%ADD22R,0.8000X0.7000*%
%ADD23R,2.1000X2.4000*%
D17*
X938022Y60612D02*
D03*
X954022D02*
D03*
Y70612D02*
D03*
Y80612D02*
D03*
X938022D02*
D03*
Y70612D02*
D03*
D18*
X530352Y111894D02*
D03*
Y96894D02*
D03*
X1146048Y555110D02*
D03*
Y570110D02*
D03*
X751840Y464820D02*
D03*
Y479820D02*
D03*
X733044Y464178D02*
D03*
Y479178D02*
D03*
X706036Y352164D02*
D03*
Y367164D02*
D03*
X502158Y96386D02*
D03*
Y111386D02*
D03*
X1265428Y252088D02*
D03*
Y267088D02*
D03*
X982726Y151504D02*
D03*
Y166504D02*
D03*
X881888Y257168D02*
D03*
Y272168D02*
D03*
X244602Y547998D02*
D03*
Y562998D02*
D03*
X244348Y513976D02*
D03*
Y498976D02*
D03*
X549148Y378580D02*
D03*
Y393580D02*
D03*
D19*
X689236Y526034D02*
D03*
X674236D02*
D03*
X743578Y424434D02*
D03*
X758578D02*
D03*
X743905Y404876D02*
D03*
X758905D02*
D03*
X618370Y528320D02*
D03*
X603370D02*
D03*
X746372Y352552D02*
D03*
X761372D02*
D03*
X996816Y103124D02*
D03*
X1011816D02*
D03*
X860418Y410210D02*
D03*
X875418D02*
D03*
X996322Y83312D02*
D03*
X981322D02*
D03*
X995560Y53594D02*
D03*
X980560D02*
D03*
X397122Y158242D02*
D03*
X412122D02*
D03*
X397122Y183896D02*
D03*
X412122D02*
D03*
X396360Y262890D02*
D03*
X411360D02*
D03*
X395852Y289560D02*
D03*
X410852D02*
D03*
X410598Y314198D02*
D03*
X395598D02*
D03*
X410344Y339852D02*
D03*
X395344D02*
D03*
X411360Y209804D02*
D03*
X396360D02*
D03*
X411614Y236220D02*
D03*
X396614D02*
D03*
X931552Y34290D02*
D03*
X916552D02*
D03*
D20*
X684438Y380650D02*
D03*
X679438D02*
D03*
X674438D02*
D03*
X669438D02*
D03*
X664438D02*
D03*
X659438D02*
D03*
X654438D02*
D03*
X649438D02*
D03*
X644438D02*
D03*
X639438D02*
D03*
X634438D02*
D03*
X629438D02*
D03*
X624438D02*
D03*
X619438D02*
D03*
X614438D02*
D03*
X609438D02*
D03*
Y495650D02*
D03*
X614438D02*
D03*
X619438D02*
D03*
X624438D02*
D03*
X629438D02*
D03*
X634438D02*
D03*
X639438D02*
D03*
X644438D02*
D03*
X649438D02*
D03*
X654438D02*
D03*
X659438D02*
D03*
X664438D02*
D03*
X669438D02*
D03*
X674438D02*
D03*
X679438D02*
D03*
X684438D02*
D03*
D21*
X589438Y400650D02*
D03*
Y405650D02*
D03*
Y410650D02*
D03*
Y415650D02*
D03*
Y420650D02*
D03*
Y425650D02*
D03*
Y430650D02*
D03*
Y435650D02*
D03*
Y440650D02*
D03*
Y445650D02*
D03*
Y450650D02*
D03*
Y455650D02*
D03*
Y460650D02*
D03*
Y465650D02*
D03*
Y470650D02*
D03*
Y475650D02*
D03*
X704438D02*
D03*
Y470650D02*
D03*
Y465650D02*
D03*
Y460650D02*
D03*
Y455650D02*
D03*
Y450650D02*
D03*
Y445650D02*
D03*
Y440650D02*
D03*
Y435650D02*
D03*
Y430650D02*
D03*
Y425650D02*
D03*
Y420650D02*
D03*
Y415650D02*
D03*
Y410650D02*
D03*
Y405650D02*
D03*
Y400650D02*
D03*
D22*
X759260Y387604D02*
D03*
X746760D02*
D03*
Y371104D02*
D03*
X759260D02*
D03*
D23*
X1038710Y34290D02*
D03*
Y133290D02*
D03*
X1083710D02*
D03*
Y34290D02*
D03*
M02*
